<svg xmlns="http://www.w3.org/2000/svg" xmlns:xlink="http://www.w3.org/1999/xlink" width="500" zoomAndPan="magnify" viewBox="0 0 375 374.999991" height="500" preserveAspectRatio="xMidYMid meet" version="1.0"><defs><g/><clipPath id="defcabe40b"><path d="M 78.847656 60.710938 L 319.597656 60.710938 L 319.597656 337.964844 L 78.847656 337.964844 Z M 78.847656 60.710938 " clip-rule="nonzero"/></clipPath><clipPath id="00ff4abe64"><path d="M 73.550781 54.105469 L 324.800781 54.105469 L 324.800781 344.355469 L 73.550781 344.355469 Z M 73.550781 54.105469 " clip-rule="nonzero"/></clipPath><clipPath id="0e2d9b8bbc"><path d="M 167.414062 246.15625 L 231.164062 246.15625 L 231.164062 304.65625 L 167.414062 304.65625 Z M 167.414062 246.15625 " clip-rule="nonzero"/></clipPath><clipPath id="1658e7202c"><path d="M 167.414062 259 L 231.164062 259 L 231.164062 265 L 167.414062 265 Z M 167.414062 259 " clip-rule="nonzero"/></clipPath></defs><g clip-path="url(#defcabe40b)"><path fill="#000000" d="M 319.597656 268.804688 L 199.222656 338.152344 L 78.847656 268.804688 L 78.847656 130.117188 L 199.222656 60.769531 L 319.597656 130.117188 Z M 319.597656 268.804688 " fill-opacity="1" fill-rule="nonzero"/></g><g fill="#10e956" fill-opacity="1"><g transform="translate(127.203417, 178.914994)"><g><path d="M 12.0625 0 L 13.660156 -25.445312 L 13.769531 -27.15625 L 13.441406 -27.15625 L 7.710938 0 L 2.203125 0 L 10.796875 -40.484375 L 18.066406 -40.484375 L 17.625 -21.976562 L 17.460938 -19.828125 L 17.570312 -19.828125 L 18.285156 -21.976562 L 25.777344 -40.484375 L 33.046875 -40.484375 L 24.457031 0 L 18.949219 0 L 24.675781 -27.15625 L 24.34375 -27.15625 L 23.792969 -25.445312 L 14.597656 0 Z M 12.0625 0 "/></g></g></g><g fill="#10e956" fill-opacity="1"><g transform="translate(153.861214, 178.914994)"><g><path d="M 10.796875 -40.484375 L 16.746094 -40.484375 L 8.152344 0 L 2.203125 0 Z M 10.796875 -40.484375 "/></g></g></g><g fill="#10e956" fill-opacity="1"><g transform="translate(164.215897, 178.914994)"><g><path d="M 7.378906 -34.371094 L 8.703125 -40.484375 L 25.886719 -40.484375 L 24.566406 -34.371094 L 18.949219 -34.371094 L 11.675781 0 L 5.726562 0 L 13 -34.371094 Z M 7.378906 -34.371094 "/></g></g></g><g fill="#10e956" fill-opacity="1"><g transform="translate(181.620574, 178.914994)"><g><path d="M 20.601562 -13.878906 L 19.441406 -8.316406 C 19.003906 -6.664062 18.339844 -5.175781 17.515625 -3.910156 C 16.6875 -2.808594 15.753906 -1.761719 14.484375 -0.9375 C 13.164062 0 11.566406 0.441406 9.640625 0.441406 C 7.710938 0.441406 6.277344 0 5.289062 -0.9375 C 4.351562 -1.761719 3.855469 -2.808594 3.636719 -3.910156 C 3.25 -5.175781 3.25 -6.609375 3.582031 -8.316406 L 8.648438 -32.167969 C 9.03125 -33.765625 9.640625 -35.195312 10.519531 -36.519531 C 11.347656 -37.621094 12.226562 -38.722656 13.496094 -39.546875 C 14.761719 -40.375 16.414062 -40.925781 18.398438 -40.925781 C 20.378906 -40.925781 21.757812 -40.375 22.691406 -39.546875 C 23.628906 -38.722656 24.179688 -37.621094 24.402344 -36.519531 C 24.785156 -35.304688 24.785156 -33.875 24.511719 -32.167969 L 23.300781 -26.605469 L 17.734375 -26.605469 L 18.949219 -32.167969 C 19.167969 -33.214844 19.058594 -34.09375 18.5625 -34.699219 C 18.339844 -34.976562 17.902344 -35.140625 17.296875 -35.140625 C 16.25 -35.140625 15.585938 -34.371094 15.148438 -33.652344 C 14.980469 -33.269531 14.761719 -32.773438 14.597656 -32.167969 L 9.527344 -8.316406 C 9.363281 -7.269531 9.472656 -6.390625 9.914062 -5.785156 C 10.132812 -5.507812 10.464844 -5.34375 10.960938 -5.34375 C 12.226562 -5.34375 12.890625 -6.003906 13.328125 -6.828125 C 13.496094 -7.160156 13.714844 -7.65625 13.878906 -8.316406 L 15.035156 -13.878906 Z M 20.601562 -13.878906 "/></g></g></g><g fill="#10e956" fill-opacity="1"><g transform="translate(200.677595, 178.914994)"><g><path d="M 16.523438 -17.625 L 11.898438 -17.625 L 8.152344 0 L 2.203125 0 L 10.796875 -40.484375 L 16.746094 -40.484375 L 13.164062 -23.738281 L 17.789062 -23.738281 L 21.371094 -40.484375 L 27.320312 -40.484375 L 18.726562 0 L 12.777344 0 Z M 16.523438 -17.625 "/></g></g></g><g fill="#10e956" fill-opacity="1"><g transform="translate(221.60727, 178.914994)"><g><path d="M 10.796875 -40.484375 L 24.402344 -40.484375 L 23.078125 -34.371094 L 15.421875 -34.371094 L 13.164062 -23.738281 L 18.671875 -23.738281 L 17.296875 -17.238281 L 11.789062 -17.238281 L 9.417969 -6.113281 L 17.074219 -6.113281 L 15.808594 0 L 2.203125 0 Z M 10.796875 -40.484375 "/></g></g></g><g fill="#10e956" fill-opacity="1"><g transform="translate(238.516246, 178.914994)"><g><path d="M 10.796875 -40.484375 L 16.746094 -40.484375 L 9.308594 -5.507812 L 17.183594 -5.507812 L 16.027344 0 L 2.203125 0 Z M 10.796875 -40.484375 "/></g></g></g><g fill="#10e956" fill-opacity="1"><g transform="translate(254.76428, 178.914994)"><g><path d="M 10.796875 -40.484375 L 16.746094 -40.484375 L 9.308594 -5.507812 L 17.183594 -5.507812 L 16.027344 0 L 2.203125 0 Z M 10.796875 -40.484375 "/></g></g></g><g fill="#10e956" fill-opacity="1"><g transform="translate(106.906543, 226.164991)"><g><path d="M 0.550781 0 L 15.257812 -40.484375 L 22.527344 -40.484375 L 20.050781 0 L 14.265625 0 L 14.871094 -8.261719 L 9.144531 -8.261719 L 6.335938 0 Z M 16.414062 -27.320312 L 16.46875 -28.367188 L 16.136719 -28.367188 L 15.753906 -27.320312 L 11.347656 -14.542969 L 15.421875 -14.542969 Z M 16.414062 -27.320312 "/></g></g></g><g fill="#10e956" fill-opacity="1"><g transform="translate(127.505747, 226.164991)"><g><path d="M 12.832031 0 L 13.328125 -17.074219 L 11.730469 -17.074219 L 8.152344 0 L 2.203125 0 L 10.796875 -40.484375 L 16.746094 -40.484375 C 23.851562 -40.484375 25.996094 -36.519531 24.402344 -28.808594 C 23.519531 -24.785156 21.703125 -21.152344 19.113281 -19.609375 L 18.78125 0 Z M 12.945312 -22.582031 C 13.769531 -22.582031 14.871094 -22.636719 15.917969 -23.464844 C 16.964844 -24.289062 18.011719 -25.722656 18.617188 -28.585938 C 19.222656 -31.449219 18.835938 -32.9375 18.121094 -33.765625 C 17.40625 -34.589844 16.304688 -34.589844 15.476562 -34.589844 Z M 12.945312 -22.582031 "/></g></g></g><g fill="#10e956" fill-opacity="1"><g transform="translate(147.38894, 226.164991)"><g><path d="M 12.0625 0 L 13.660156 -25.445312 L 13.769531 -27.15625 L 13.441406 -27.15625 L 7.710938 0 L 2.203125 0 L 10.796875 -40.484375 L 18.066406 -40.484375 L 17.625 -21.976562 L 17.460938 -19.828125 L 17.570312 -19.828125 L 18.285156 -21.976562 L 25.777344 -40.484375 L 33.046875 -40.484375 L 24.457031 0 L 18.949219 0 L 24.675781 -27.15625 L 24.34375 -27.15625 L 23.792969 -25.445312 L 14.597656 0 Z M 12.0625 0 "/></g></g></g><g fill="#10e956" fill-opacity="1"><g transform="translate(174.046737, 226.164991)"><g><path d="M 18.339844 -29.632812 C 18.617188 -30.953125 18.890625 -32.441406 18.726562 -33.597656 C 18.5625 -34.699219 18.121094 -35.472656 17.183594 -35.472656 C 15.644531 -35.417969 14.816406 -33.820312 14.320312 -31.449219 C 14.046875 -30.074219 14.265625 -28.640625 14.871094 -27.097656 C 15.476562 -25.558594 16.195312 -23.960938 17.019531 -22.253906 C 18.066406 -20.214844 18.890625 -18.121094 19.554688 -16.082031 C 20.160156 -14.046875 20.433594 -11.953125 19.9375 -9.75 C 19.332031 -7.050781 18.453125 -4.570312 16.746094 -2.644531 C 15.035156 -0.714844 12.832031 0.441406 9.527344 0.441406 C 5.726562 0.441406 3.855469 -0.992188 3.140625 -3.195312 C 2.3125 -5.398438 2.753906 -8.261719 3.359375 -11.347656 L 9.308594 -11.898438 C 8.921875 -10.191406 8.648438 -8.480469 8.8125 -7.214844 C 8.976562 -5.894531 9.417969 -5.011719 10.683594 -5.011719 C 12.449219 -5.011719 13.441406 -6.886719 14.046875 -9.472656 C 14.320312 -10.796875 14.046875 -12.339844 13.441406 -13.933594 C 13.273438 -14.320312 13.109375 -14.761719 12.945312 -15.148438 C 12.777344 -15.53125 12.613281 -15.972656 12.449219 -16.359375 C 12.0625 -17.183594 11.621094 -18.066406 11.179688 -19.003906 C 10.742188 -19.9375 10.300781 -20.875 9.859375 -21.921875 C 8.921875 -24.015625 8.425781 -26.109375 8.261719 -28.199219 C 8.097656 -29.246094 8.261719 -30.347656 8.480469 -31.449219 C 8.921875 -33.652344 9.914062 -36.023438 11.621094 -37.839844 C 13.21875 -39.601562 15.421875 -40.871094 18.230469 -40.925781 C 21.921875 -40.980469 23.628906 -39.492188 24.34375 -37.34375 C 25.007812 -35.140625 24.785156 -32.441406 24.289062 -30.183594 Z M 18.339844 -29.632812 "/></g></g></g><g fill="#10e956" fill-opacity="1"><g transform="translate(192.938516, 226.164991)"><g><path d="M 7.378906 -34.371094 L 8.703125 -40.484375 L 25.886719 -40.484375 L 24.566406 -34.371094 L 18.949219 -34.371094 L 11.675781 0 L 5.726562 0 L 13 -34.371094 Z M 7.378906 -34.371094 "/></g></g></g><g fill="#10e956" fill-opacity="1"><g transform="translate(210.343194, 226.164991)"><g><path d="M 12.832031 0 L 13.328125 -17.074219 L 11.730469 -17.074219 L 8.152344 0 L 2.203125 0 L 10.796875 -40.484375 L 16.746094 -40.484375 C 23.851562 -40.484375 25.996094 -36.519531 24.402344 -28.808594 C 23.519531 -24.785156 21.703125 -21.152344 19.113281 -19.609375 L 18.78125 0 Z M 12.945312 -22.582031 C 13.769531 -22.582031 14.871094 -22.636719 15.917969 -23.464844 C 16.964844 -24.289062 18.011719 -25.722656 18.617188 -28.585938 C 19.222656 -31.449219 18.835938 -32.9375 18.121094 -33.765625 C 17.40625 -34.589844 16.304688 -34.589844 15.476562 -34.589844 Z M 12.945312 -22.582031 "/></g></g></g><g fill="#10e956" fill-opacity="1"><g transform="translate(230.226386, 226.164991)"><g><path d="M 19.441406 -8.316406 C 19.003906 -6.664062 18.339844 -5.175781 17.515625 -3.910156 C 16.6875 -2.808594 15.753906 -1.761719 14.484375 -0.9375 C 13.164062 0 11.566406 0.441406 9.640625 0.441406 C 7.710938 0.441406 6.277344 0 5.289062 -0.9375 C 4.351562 -1.761719 3.855469 -2.808594 3.636719 -3.910156 C 3.25 -5.175781 3.25 -6.609375 3.582031 -8.316406 L 8.648438 -32.167969 C 9.03125 -33.765625 9.640625 -35.195312 10.519531 -36.519531 C 11.347656 -37.621094 12.226562 -38.722656 13.496094 -39.546875 C 14.761719 -40.375 16.414062 -40.925781 18.398438 -40.925781 C 20.378906 -40.925781 21.757812 -40.375 22.691406 -39.546875 C 23.628906 -38.722656 24.179688 -37.621094 24.402344 -36.519531 C 24.785156 -35.304688 24.785156 -33.875 24.511719 -32.167969 Z M 18.5625 -32.167969 C 18.78125 -33.269531 18.671875 -34.09375 18.285156 -34.699219 C 18.066406 -34.976562 17.679688 -35.140625 17.183594 -35.140625 C 16.136719 -35.140625 15.476562 -34.371094 15.09375 -33.652344 C 14.871094 -33.214844 14.707031 -32.71875 14.597656 -32.167969 L 9.527344 -8.316406 C 9.253906 -7.269531 9.363281 -6.390625 9.804688 -5.785156 C 10.023438 -5.507812 10.355469 -5.34375 10.851562 -5.34375 C 11.898438 -5.34375 12.558594 -6.003906 12.945312 -6.828125 C 13.109375 -7.160156 13.328125 -7.65625 13.496094 -8.316406 Z M 18.5625 -32.167969 "/></g></g></g><g fill="#10e956" fill-opacity="1"><g transform="translate(249.724028, 226.164991)"><g><path d="M 12.945312 -21.09375 L 12.832031 -22.96875 L 12.503906 -22.96875 L 7.65625 0 L 2.203125 0 L 10.796875 -40.484375 L 16.082031 -40.484375 L 17.351562 -19.386719 L 17.460938 -17.515625 L 17.789062 -17.515625 L 22.691406 -40.484375 L 28.144531 -40.484375 L 19.554688 0 L 14.265625 0 Z M 12.945312 -21.09375 "/></g></g></g><g fill="#10e956" fill-opacity="1"><g transform="translate(271.479874, 226.164991)"><g><path d="M 17.238281 -25.941406 L 18.5625 -32.167969 C 18.78125 -33.269531 18.671875 -34.09375 18.285156 -34.699219 C 18.066406 -34.976562 17.679688 -35.140625 17.183594 -35.140625 C 16.136719 -35.140625 15.476562 -34.371094 15.09375 -33.652344 C 14.871094 -33.214844 14.707031 -32.71875 14.597656 -32.167969 L 9.417969 -7.820312 C 9.144531 -6.773438 9.253906 -5.894531 9.695312 -5.289062 C 9.914062 -5.011719 10.246094 -4.847656 10.742188 -4.847656 C 11.789062 -4.847656 12.449219 -5.507812 12.832031 -6.335938 C 13 -6.664062 13.21875 -7.160156 13.382812 -7.820312 L 14.925781 -15.148438 L 12.558594 -15.148438 L 13.605469 -20.160156 L 21.921875 -20.160156 L 17.679688 0 L 14.15625 0 L 13.824219 -1.929688 C 12.449219 -0.550781 10.628906 0.441406 8.703125 0.441406 C 6.773438 0.441406 5.5625 -0.0546875 4.738281 -0.9375 C 3.910156 -1.761719 3.46875 -2.808594 3.304688 -3.910156 C 3.03125 -5.175781 3.140625 -6.609375 3.582031 -8.316406 L 8.648438 -32.167969 C 9.03125 -33.765625 9.640625 -35.195312 10.519531 -36.519531 C 11.347656 -37.621094 12.226562 -38.722656 13.496094 -39.546875 C 14.761719 -40.375 16.414062 -40.925781 18.398438 -40.925781 C 20.378906 -40.925781 21.757812 -40.375 22.691406 -39.546875 C 23.628906 -38.722656 24.179688 -37.621094 24.402344 -36.519531 C 24.785156 -35.304688 24.785156 -33.875 24.511719 -32.167969 L 23.1875 -25.941406 Z M 17.238281 -25.941406 "/></g></g></g><g clip-path="url(#00ff4abe64)"><path fill="#10e956" d="M 82.253906 131.761719 L 199.175781 64.289062 L 316.097656 131.761719 L 316.097656 266.699219 L 199.175781 334.230469 L 82.253906 266.699219 L 82.253906 131.761719 M 73.550781 126.710938 L 73.550781 271.746094 L 199.175781 344.265625 L 324.800781 271.746094 L 324.800781 126.710938 L 199.175781 54.195312 Z M 73.550781 126.710938 " fill-opacity="1" fill-rule="nonzero"/></g><path fill="#10e956" d="M 187.167969 288.90625 C 186.539062 288.90625 186.003906 288.683594 185.558594 288.246094 L 179.496094 282.246094 C 179.28125 282.035156 179.117188 281.792969 179.003906 281.515625 C 178.886719 281.242188 178.828125 280.953125 178.828125 280.65625 C 178.828125 280.355469 178.886719 280.070312 179.003906 279.792969 C 179.117188 279.515625 179.28125 279.273438 179.496094 279.0625 L 185.558594 273.0625 C 185.773438 272.851562 186.019531 272.6875 186.296875 272.574219 C 186.574219 272.460938 186.867188 272.402344 187.167969 272.402344 C 187.46875 272.402344 187.757812 272.460938 188.039062 272.574219 C 188.316406 272.6875 188.5625 272.851562 188.777344 273.0625 C 188.988281 273.273438 189.152344 273.515625 189.269531 273.792969 C 189.382812 274.070312 189.441406 274.355469 189.441406 274.65625 C 189.441406 274.953125 189.382812 275.242188 189.265625 275.515625 C 189.152344 275.792969 188.988281 276.035156 188.773438 276.246094 L 184.316406 280.652344 L 188.773438 285.0625 C 189.097656 285.386719 189.304688 285.769531 189.394531 286.214844 C 189.484375 286.660156 189.441406 287.09375 189.265625 287.515625 C 189.089844 287.9375 188.8125 288.273438 188.429688 288.523438 C 188.046875 288.777344 187.625 288.90625 187.167969 288.90625 Z M 187.167969 288.90625 " fill-opacity="1" fill-rule="nonzero"/><path fill="#10e956" d="M 211.414062 288.90625 C 210.953125 288.90625 210.53125 288.777344 210.152344 288.523438 C 209.769531 288.273438 209.488281 287.9375 209.3125 287.515625 C 209.136719 287.09375 209.09375 286.660156 209.183594 286.214844 C 209.273438 285.769531 209.480469 285.386719 209.804688 285.0625 L 214.261719 280.652344 L 209.804688 276.246094 C 209.59375 276.035156 209.429688 275.792969 209.3125 275.515625 C 209.199219 275.242188 209.140625 274.953125 209.140625 274.65625 C 209.140625 274.355469 209.199219 274.070312 209.3125 273.792969 C 209.429688 273.519531 209.59375 273.273438 209.804688 273.0625 C 210.019531 272.851562 210.265625 272.691406 210.542969 272.574219 C 210.820312 272.460938 211.113281 272.402344 211.414062 272.402344 C 211.714844 272.402344 212.003906 272.460938 212.28125 272.574219 C 212.5625 272.6875 212.808594 272.851562 213.019531 273.0625 L 219.082031 279.0625 C 219.296875 279.273438 219.460938 279.515625 219.578125 279.792969 C 219.691406 280.070312 219.75 280.355469 219.75 280.65625 C 219.75 280.953125 219.691406 281.242188 219.578125 281.515625 C 219.460938 281.792969 219.296875 282.035156 219.082031 282.246094 L 213.019531 288.246094 C 212.578125 288.683594 212.042969 288.90625 211.414062 288.90625 Z M 211.414062 288.90625 " fill-opacity="1" fill-rule="nonzero"/><path fill="#10e956" d="M 196.257812 288.90625 C 196.0625 288.90625 195.875 288.878906 195.6875 288.832031 C 195.5 288.785156 195.320312 288.710938 195.152344 288.621094 C 194.980469 288.527344 194.828125 288.414062 194.6875 288.28125 C 194.546875 288.148438 194.425781 288 194.324219 287.835938 C 194.222656 287.675781 194.144531 287.5 194.085938 287.316406 C 194.027344 287.132812 193.996094 286.945312 193.988281 286.753906 C 193.980469 286.5625 193.996094 286.375 194.035156 286.1875 C 194.074219 286 194.136719 285.820312 194.226562 285.648438 L 200.285156 273.648438 C 200.421875 273.378906 200.605469 273.148438 200.832031 272.953125 C 201.0625 272.757812 201.320312 272.613281 201.605469 272.519531 C 201.890625 272.425781 202.1875 272.390625 202.488281 272.410156 C 202.789062 272.433594 203.074219 272.511719 203.34375 272.644531 C 203.613281 272.78125 203.847656 272.960938 204.042969 273.1875 C 204.242188 273.414062 204.386719 273.667969 204.484375 273.953125 C 204.578125 274.234375 204.613281 274.527344 204.589844 274.824219 C 204.570312 275.121094 204.492188 275.40625 204.355469 275.671875 L 198.292969 287.671875 C 198.101562 288.050781 197.820312 288.351562 197.453125 288.574219 C 197.085938 288.796875 196.6875 288.90625 196.257812 288.90625 Z M 196.257812 288.90625 " fill-opacity="1" fill-rule="nonzero"/><g clip-path="url(#0e2d9b8bbc)"><path fill="#10e956" d="M 228.84375 304.65625 L 169.738281 304.65625 C 169.433594 304.65625 169.144531 304.597656 168.867188 304.484375 C 168.589844 304.367188 168.34375 304.207031 168.128906 303.996094 C 167.917969 303.785156 167.753906 303.542969 167.636719 303.265625 C 167.519531 302.988281 167.464844 302.703125 167.464844 302.40625 L 167.464844 248.40625 C 167.464844 248.105469 167.519531 247.820312 167.636719 247.542969 C 167.753906 247.269531 167.917969 247.023438 168.128906 246.8125 C 168.34375 246.601562 168.589844 246.441406 168.867188 246.324219 C 169.144531 246.210938 169.433594 246.15625 169.738281 246.15625 L 228.84375 246.15625 C 229.144531 246.15625 229.433594 246.210938 229.714844 246.324219 C 229.992188 246.441406 230.238281 246.601562 230.449219 246.8125 C 230.664062 247.023438 230.828125 247.269531 230.945312 247.542969 C 231.058594 247.820312 231.117188 248.105469 231.117188 248.40625 L 231.117188 302.40625 C 231.117188 302.703125 231.058594 302.988281 230.945312 303.265625 C 230.828125 303.542969 230.664062 303.785156 230.449219 303.996094 C 230.238281 304.207031 229.992188 304.367188 229.714844 304.484375 C 229.433594 304.597656 229.144531 304.65625 228.84375 304.65625 Z M 172.011719 300.15625 L 226.570312 300.15625 L 226.570312 250.65625 L 172.011719 250.65625 Z M 172.011719 300.15625 " fill-opacity="1" fill-rule="nonzero"/></g><g clip-path="url(#1658e7202c)"><path fill="#10e956" d="M 228.84375 264.15625 L 169.738281 264.15625 C 169.433594 264.15625 169.144531 264.097656 168.867188 263.984375 C 168.589844 263.867188 168.34375 263.707031 168.128906 263.496094 C 167.917969 263.285156 167.753906 263.042969 167.636719 262.765625 C 167.519531 262.488281 167.464844 262.203125 167.464844 261.90625 C 167.464844 261.605469 167.519531 261.320312 167.636719 261.042969 C 167.753906 260.769531 167.917969 260.523438 168.128906 260.3125 C 168.34375 260.101562 168.589844 259.941406 168.867188 259.824219 C 169.144531 259.710938 169.433594 259.65625 169.738281 259.65625 L 228.84375 259.65625 C 229.144531 259.65625 229.433594 259.710938 229.714844 259.824219 C 229.992188 259.941406 230.238281 260.101562 230.449219 260.3125 C 230.664062 260.523438 230.828125 260.769531 230.945312 261.042969 C 231.058594 261.320312 231.117188 261.605469 231.117188 261.90625 C 231.117188 262.203125 231.058594 262.488281 230.945312 262.765625 C 230.828125 263.042969 230.664062 263.285156 230.449219 263.496094 C 230.238281 263.707031 229.992188 263.867188 229.714844 263.984375 C 229.433594 264.097656 229.144531 264.15625 228.84375 264.15625 Z M 228.84375 264.15625 " fill-opacity="1" fill-rule="nonzero"/></g><path fill="#10e956" d="M 208.382812 257.40625 C 208.230469 257.398438 208.078125 257.382812 207.929688 257.359375 C 207.785156 257.335938 207.648438 257.289062 207.519531 257.222656 C 207.375 257.175781 207.234375 257.105469 207.109375 257.023438 L 206.769531 256.75 C 206.558594 256.539062 206.394531 256.292969 206.28125 256.015625 C 206.167969 255.742188 206.109375 255.453125 206.109375 255.15625 C 206.109375 254.855469 206.167969 254.566406 206.28125 254.292969 C 206.394531 254.015625 206.558594 253.769531 206.769531 253.558594 C 207.097656 253.242188 207.488281 253.042969 207.9375 252.957031 C 208.386719 252.871094 208.824219 252.914062 209.246094 253.085938 C 209.386719 253.128906 209.515625 253.199219 209.632812 253.285156 C 209.769531 253.375 209.882812 253.46875 209.996094 253.558594 C 210.207031 253.769531 210.371094 254.015625 210.484375 254.292969 C 210.601562 254.566406 210.65625 254.855469 210.65625 255.15625 C 210.65625 255.453125 210.601562 255.742188 210.484375 256.015625 C 210.371094 256.292969 210.207031 256.539062 209.996094 256.75 C 209.773438 256.953125 209.523438 257.109375 209.246094 257.222656 C 208.972656 257.339844 208.683594 257.402344 208.382812 257.40625 Z M 208.382812 257.40625 " fill-opacity="1" fill-rule="nonzero"/><path fill="#10e956" d="M 215.203125 257.40625 C 215.050781 257.398438 214.898438 257.382812 214.75 257.359375 C 214.605469 257.335938 214.46875 257.289062 214.339844 257.222656 C 214.195312 257.175781 214.054688 257.105469 213.929688 257.023438 C 213.808594 256.9375 213.695312 256.847656 213.589844 256.75 C 213.375 256.539062 213.21875 256.289062 213.113281 256.007812 C 212.859375 255.4375 212.859375 254.871094 213.113281 254.300781 C 213.226562 254.023438 213.386719 253.777344 213.589844 253.558594 C 213.914062 253.230469 214.304688 253.023438 214.757812 252.933594 C 215.207031 252.84375 215.648438 252.886719 216.074219 253.0625 C 216.5 253.238281 216.84375 253.515625 217.097656 253.898438 C 217.351562 254.277344 217.480469 254.699219 217.476562 255.15625 C 217.46875 255.773438 217.246094 256.304688 216.816406 256.75 C 216.707031 256.847656 216.59375 256.9375 216.476562 257.023438 C 216.347656 257.105469 216.210938 257.175781 216.066406 257.222656 C 215.9375 257.289062 215.800781 257.335938 215.65625 257.359375 C 215.507812 257.386719 215.355469 257.402344 215.203125 257.40625 Z M 215.203125 257.40625 " fill-opacity="1" fill-rule="nonzero"/><path fill="#10e956" d="M 222.023438 257.40625 C 221.722656 257.40625 221.429688 257.351562 221.148438 257.238281 C 220.871094 257.125 220.621094 256.964844 220.410156 256.753906 C 220.195312 256.539062 220.03125 256.296875 219.917969 256.019531 C 219.800781 255.742188 219.746094 255.453125 219.75 255.15625 C 219.742188 254.855469 219.800781 254.570312 219.933594 254.300781 C 220.046875 254.023438 220.207031 253.777344 220.410156 253.558594 C 220.628906 253.355469 220.878906 253.203125 221.15625 253.09375 C 221.433594 252.988281 221.722656 252.933594 222.023438 252.933594 C 222.324219 252.933594 222.609375 252.988281 222.890625 253.09375 C 223.167969 253.203125 223.417969 253.355469 223.636719 253.558594 C 223.839844 253.777344 224 254.023438 224.113281 254.300781 C 224.230469 254.574219 224.292969 254.859375 224.296875 255.15625 C 224.300781 255.453125 224.242188 255.742188 224.128906 256.019531 C 224.015625 256.296875 223.851562 256.539062 223.636719 256.753906 C 223.421875 256.964844 223.175781 257.125 222.898438 257.238281 C 222.617188 257.351562 222.324219 257.40625 222.023438 257.40625 Z M 222.023438 257.40625 " fill-opacity="1" fill-rule="nonzero"/></svg>