<svg id="SvgjsSvg1225" width="288" height="288" xmlns="http://www.w3.org/2000/svg" version="1.1"><defs id="SvgjsDefs1226"></defs><g id="SvgjsG1227"><svg xmlns="http://www.w3.org/2000/svg" viewBox="0 0 32 32" width="288" height="288"><path d="M22.5 18c-2.4 0-5.1.4-6.5 1.4-1.4-1-4.1-1.4-6.5-1.4C6 18 2 18.8 2 21v6c0 2.2 4 3 7.5 3 2.4 0 5.1-.4 6.5-1.4 1.4 1 4.1 1.4 6.5 1.4 3.5 0 7.5-.8 7.5-3v-6c0-2.2-4-3-7.5-3zm5.5 5.9c-.4.4-2.3 1.1-5.5 1.1s-5.1-.7-5.5-1.1v-.7c1.5.6 3.6.8 5.5.8s4-.2 5.5-.8v.7zm-24-.7c1.5.6 3.6.8 5.5.8s4-.2 5.5-.8v.7c-.4.4-2.3 1.1-5.5 1.1s-5.1-.7-5.5-1.1v-.7zM22.5 20c2.9 0 4.8.6 5.4 1-.6.4-2.4 1-5.4 1s-4.8-.6-5.4-1c.6-.4 2.5-1 5.4-1zm-13 0c2.9 0 4.8.6 5.4 1-.6.4-2.4 1-5.4 1s-4.8-.6-5.4-1c.6-.4 2.5-1 5.4-1zM4 26.9v-.7c1.5.6 3.6.8 5.5.8s4-.2 5.5-.8v.7c-.4.4-2.3 1.1-5.5 1.1s-5.1-.7-5.5-1.1zM22.5 28c-3.2 0-5.1-.7-5.5-1.1v-.7c1.5.6 3.6.8 5.5.8s4-.2 5.5-.8v.7c-.4.4-2.3 1.1-5.5 1.1zM5 16c1.2 0 2.2-.7 2.7-1.8l5.4 1.5c.3 1.3 1.5 2.2 2.9 2.2 1.5 0 2.8-1.1 3-2.6l4.8-5.7c.2.1.5.2.7.2l1 1.5c-.9.7-1.5 1.6-1.5 2.7 0 1.7 1.3 3 3 3s3-1.3 3-3c0-1.5-1-2.7-2.4-2.9l-1-1.5C27.4 9 28 8.1 28 7c0-1.7-1.3-3-3-3-1.2 0-2.2.7-2.7 1.7l-3.4-1.4C18.6 3 17.4 2 16 2c-1.3 0-2.4.8-2.8 2h-2.4C10.4 2.8 9.3 2 8 2 6.3 2 5 3.3 5 5s1.3 3 3 3c.5 0 .9-.1 1.3-.3l4.5 5.3c-.2.2-.3.4-.5.7l-5.4-1.5C7.5 10.9 6.4 10 5 10c-1.7 0-3 1.3-3 3s1.3 3 3 3zm11 0c-.6 0-1-.4-1-1s.4-1 1-1 1 .4 1 1-.4 1-1 1zm11-1c-.6 0-1-.4-1-1s.4-1 1-1 1 .4 1 1-.4 1-1 1zm-2-9c.6 0 1 .4 1 1s-.4 1-1 1-1-.4-1-1 .4-1 1-1zm-9-2c.6 0 1 .4 1 1s-.4 1-1 1-1-.4-1-1 .4-1 1-1zM8 6c-.6 0-1-.4-1-1s.4-1 1-1 1 .4 1 1-.4 1-1 1zm2.7.3c0-.1.1-.2.1-.3h2.4c.4 1.2 1.5 2 2.8 2 1.2 0 2.2-.7 2.7-1.7l3.4 1.4c.1.2.1.4.2.6 0 0-.1 0-.1.1l-3.9 4.7c-.6-.7-1.4-1.1-2.3-1.1h-.5l-4.8-5.7zM5 12c.6 0 1 .4 1 1s-.4 1-1 1-1-.4-1-1 .4-1 1-1z" fill="#ffffff" class="color000 svgShape"></path></svg></g></svg>