<svg xmlns="http://www.w3.org/2000/svg" xmlns:xlink="http://www.w3.org/1999/xlink" width="500" zoomAndPan="magnify" viewBox="0 0 375 374.999991" height="500" preserveAspectRatio="xMidYMid meet" version="1.0"><defs><clipPath id="1da23cf186"><path d="M 65.390625 65.007812 L 309.832031 65.007812 L 309.832031 310 L 65.390625 310 Z M 65.390625 65.007812 " clip-rule="nonzero"/></clipPath><clipPath id="749d4fc358"><path d="M 260.976562 65.007812 L 114.023438 65.007812 L 65.390625 113.640625 L 65.390625 261.359375 L 114.023438 309.992188 L 260.976562 309.992188 L 309.609375 261.359375 L 309.609375 113.640625 L 260.976562 65.007812 " clip-rule="nonzero"/></clipPath><clipPath id="df336e943b"><path d="M 65.390625 65.015625 L 309.890625 65.015625 L 309.890625 310.257812 L 65.390625 310.257812 Z M 65.390625 65.015625 " clip-rule="nonzero"/></clipPath><clipPath id="8635465222"><path d="M 261.203125 65.015625 L 114.078125 65.015625 L 65.390625 113.699219 L 65.390625 261.570312 L 114.078125 310.253906 L 261.203125 310.253906 L 309.890625 261.570312 L 309.890625 113.699219 L 261.203125 65.015625 " clip-rule="nonzero"/></clipPath><clipPath id="8d7f3bb76c"><path d="M 112.5 121.5 L 230 121.5 L 230 231 L 112.5 231 Z M 112.5 121.5 " clip-rule="nonzero"/></clipPath><clipPath id="da53496395"><path d="M 159 145 L 262.5 145 L 262.5 253.5 L 159 253.5 Z M 159 145 " clip-rule="nonzero"/></clipPath></defs><g clip-path="url(#1da23cf186)"><g clip-path="url(#749d4fc358)"><path fill="#141414" d="M 65.390625 65.007812 L 309.832031 65.007812 L 309.832031 310.09375 L 65.390625 310.09375 Z M 65.390625 65.007812 " fill-opacity="1" fill-rule="nonzero"/></g></g><g clip-path="url(#df336e943b)"><g clip-path="url(#8635465222)"><path stroke-linecap="butt" transform="matrix(0.7509, 0, 0, 0.750825, 65.390911, 65.015254)" fill="none" stroke-linejoin="miter" d="M 260.770095 0.000493949 L 64.838495 0.000493949 L -0.000381417 64.840622 L -0.000381417 261.785423 L 64.838495 326.625551 L 260.770095 326.625551 L 325.608971 261.785423 L 325.608971 64.840622 L 260.770095 0.000493949 " stroke="#00ff00" stroke-width="20" stroke-opacity="1" stroke-miterlimit="4"/></g></g><g clip-path="url(#8d7f3bb76c)"><path fill="#00ff00" d="M 229.628906 160.160156 C 229.628906 138.855469 212.3125 121.523438 191.027344 121.523438 L 151.097656 121.523438 C 129.816406 121.523438 112.5 138.855469 112.5 160.160156 L 112.5 170.710938 C 112.5 187.328125 123.058594 202.039062 138.773438 207.316406 L 140.320312 207.835938 L 139.503906 209.246094 C 137.40625 212.863281 134.558594 218.546875 130.800781 226.621094 C 130.347656 227.589844 130.550781 228.75 131.300781 229.507812 C 132.050781 230.257812 133.242188 230.46875 134.179688 230.035156 L 179.40625 209.347656 L 191.027344 209.347656 C 212.3125 209.347656 229.628906 192.015625 229.628906 170.710938 Z M 224.503906 170.710938 C 224.503906 189.191406 209.488281 204.222656 191.027344 204.222656 L 178.847656 204.222656 C 178.484375 204.222656 178.113281 204.304688 177.78125 204.457031 L 138.445312 222.453125 L 140.148438 219.066406 C 141.703125 215.976562 144.515625 210.523438 145.867188 208.761719 L 146.019531 208.5625 L 146.234375 208.433594 C 146.90625 208.023438 147.347656 207.347656 147.449219 206.566406 C 147.621094 205.207031 146.703125 203.957031 145.351562 203.714844 C 129.285156 200.90625 117.621094 187.023438 117.621094 170.710938 L 117.621094 160.160156 C 117.621094 141.679688 132.640625 126.644531 151.097656 126.644531 L 191.027344 126.644531 C 209.488281 126.644531 224.503906 141.679688 224.503906 160.160156 Z M 224.503906 170.710938 " fill-opacity="1" fill-rule="nonzero"/></g><path fill="#00ff00" d="M 140.890625 159.046875 C 136.878906 159.046875 133.617188 162.3125 133.617188 166.324219 C 133.617188 170.335938 136.878906 173.597656 140.890625 173.597656 C 144.902344 173.597656 148.167969 170.335938 148.167969 166.324219 C 148.167969 162.3125 144.902344 159.046875 140.890625 159.046875 Z M 140.890625 159.046875 " fill-opacity="1" fill-rule="nonzero"/><path fill="#00ff00" d="M 201.234375 159.046875 C 197.222656 159.046875 193.960938 162.3125 193.960938 166.324219 C 193.960938 170.335938 197.222656 173.597656 201.234375 173.597656 C 205.246094 173.597656 208.511719 170.335938 208.511719 166.324219 C 208.511719 162.3125 205.246094 159.046875 201.234375 159.046875 Z M 201.234375 159.046875 " fill-opacity="1" fill-rule="nonzero"/><path fill="#00ff00" d="M 171.0625 159.046875 C 167.050781 159.046875 163.789062 162.3125 163.789062 166.324219 C 163.789062 170.335938 167.050781 173.597656 171.0625 173.597656 C 175.074219 173.597656 178.339844 170.335938 178.339844 166.324219 C 178.339844 162.3125 175.074219 159.046875 171.0625 159.046875 Z M 171.0625 159.046875 " fill-opacity="1" fill-rule="nonzero"/><g clip-path="url(#da53496395)"><path fill="#00ff00" d="M 164.375 220.800781 L 159.105469 223.214844 C 165.828125 228.90625 174.496094 232.367188 183.972656 232.367188 L 195.59375 232.367188 L 240.820312 253.054688 C 241.757812 253.488281 242.949219 253.277344 243.699219 252.53125 C 244.449219 251.769531 244.652344 250.609375 244.199219 249.640625 C 240.441406 241.566406 237.59375 235.882812 235.496094 232.265625 L 234.679688 230.855469 L 236.226562 230.335938 C 251.941406 225.058594 262.5 210.347656 262.5 193.730469 L 262.5 183.179688 C 262.5 164.351562 248.957031 148.671875 231.121094 145.273438 C 231.804688 147.109375 232.359375 149.007812 232.785156 150.953125 C 232.796875 150.953125 232.804688 150.957031 232.816406 150.960938 C 232.804688 150.957031 232.792969 150.953125 232.78125 150.949219 C 233.433594 153.917969 233.800781 157 233.800781 160.167969 L 233.800781 170.71875 C 233.800781 194.316406 214.617188 213.515625 191.03125 213.515625 L 180.316406 213.515625 M 227.550781 229.585938 L 227.550781 229.585938 " fill-opacity="1" fill-rule="nonzero"/></g></svg>