<svg xmlns="http://www.w3.org/2000/svg" xmlns:xlink="http://www.w3.org/1999/xlink" width="500" zoomAndPan="magnify" viewBox="0 0 375 374.999991" height="500" preserveAspectRatio="xMidYMid meet" version="1.0"><defs><clipPath id="a371b1fcdb"><path d="M 65.390625 65.007812 L 309.832031 65.007812 L 309.832031 310 L 65.390625 310 Z M 65.390625 65.007812 " clip-rule="nonzero"/></clipPath><clipPath id="70962535b6"><path d="M 260.976562 65.007812 L 114.023438 65.007812 L 65.390625 113.640625 L 65.390625 261.359375 L 114.023438 309.992188 L 260.976562 309.992188 L 309.609375 261.359375 L 309.609375 113.640625 L 260.976562 65.007812 " clip-rule="nonzero"/></clipPath><clipPath id="30a7aa7ed3"><path d="M 65.390625 65.015625 L 309.890625 65.015625 L 309.890625 310.257812 L 65.390625 310.257812 Z M 65.390625 65.015625 " clip-rule="nonzero"/></clipPath><clipPath id="cca0684830"><path d="M 261.203125 65.015625 L 114.078125 65.015625 L 65.390625 113.699219 L 65.390625 261.570312 L 114.078125 310.253906 L 261.203125 310.253906 L 309.890625 261.570312 L 309.890625 113.699219 L 261.203125 65.015625 " clip-rule="nonzero"/></clipPath><clipPath id="48a06f2ba5"><path d="M 171 241 L 190 241 L 190 255.554688 L 171 255.554688 Z M 171 241 " clip-rule="nonzero"/></clipPath><clipPath id="810bb5ab4e"><path d="M 171 248 L 190 248 L 190 255.554688 L 171 255.554688 Z M 171 248 " clip-rule="nonzero"/></clipPath><clipPath id="6085b57e73"><path d="M 80.59375 153 L 90 153 L 90 171 L 80.59375 171 Z M 80.59375 153 " clip-rule="nonzero"/></clipPath><clipPath id="0c98597954"><path d="M 287.753906 153.300781 L 294.050781 153.300781 L 294.050781 169 L 287.753906 169 Z M 287.753906 153.300781 " clip-rule="nonzero"/></clipPath><clipPath id="9d1b386cbe"><path d="M 287 152.265625 L 294.050781 152.265625 L 294.050781 169.859375 L 287 169.859375 Z M 287 152.265625 " clip-rule="nonzero"/></clipPath><clipPath id="7673bb7919"><path d="M 267 143.054688 L 286 143.054688 L 286 179 L 267 179 Z M 267 143.054688 " clip-rule="nonzero"/></clipPath><clipPath id="85d97832a7"><path d="M 266 143.054688 L 287 143.054688 L 287 180 L 266 180 Z M 266 143.054688 " clip-rule="nonzero"/></clipPath><clipPath id="e385649be6"><path d="M 277 143.054688 L 293 143.054688 L 293 179 L 277 179 Z M 277 143.054688 " clip-rule="nonzero"/></clipPath><clipPath id="1a1a2e041c"><path d="M 276 143.054688 L 293 143.054688 L 293 180 L 276 180 Z M 276 143.054688 " clip-rule="nonzero"/></clipPath><clipPath id="1772d1599f"><path d="M 226 143.054688 L 245 143.054688 L 245 179 L 226 179 Z M 226 143.054688 " clip-rule="nonzero"/></clipPath><clipPath id="32f80cb2dc"><path d="M 225 143.054688 L 246 143.054688 L 246 180 L 225 180 Z M 225 143.054688 " clip-rule="nonzero"/></clipPath><clipPath id="61f3b0de9c"><path d="M 236 143.054688 L 252 143.054688 L 252 179 L 236 179 Z M 236 143.054688 " clip-rule="nonzero"/></clipPath><clipPath id="371c45ca5c"><path d="M 235 143.054688 L 253 143.054688 L 253 180 L 235 180 Z M 235 143.054688 " clip-rule="nonzero"/></clipPath></defs><g clip-path="url(#a371b1fcdb)"><g clip-path="url(#70962535b6)"><path fill="#141414" d="M 65.390625 65.007812 L 309.832031 65.007812 L 309.832031 310.09375 L 65.390625 310.09375 Z M 65.390625 65.007812 " fill-opacity="1" fill-rule="nonzero"/></g></g><g clip-path="url(#30a7aa7ed3)"><g clip-path="url(#cca0684830)"><path stroke-linecap="butt" transform="matrix(0.7509, 0, 0, 0.750825, 65.390911, 65.015254)" fill="none" stroke-linejoin="miter" d="M 260.770095 0.000493949 L 64.838495 0.000493949 L -0.000381417 64.840622 L -0.000381417 261.785423 L 64.838495 326.625551 L 260.770095 326.625551 L 325.608971 261.785423 L 325.608971 64.840622 L 260.770095 0.000493949 " stroke="#00ff00" stroke-width="20" stroke-opacity="1" stroke-miterlimit="4"/></g></g><path fill="#00ff00" d="M 179.324219 241.136719 L 172.964844 241.136719 L 172.964844 216.53125 L 179.324219 216.53125 L 179.324219 241.136719 " fill-opacity="1" fill-rule="nonzero"/><path stroke-linecap="round" transform="matrix(0.0516152, 0, 0, -0.0517479, 74.584951, 288.467559)" fill="none" stroke-linejoin="round" d="M 2029.233275 914.642227 L 1906.025851 914.642227 L 1906.025851 1390.129261 L 2029.233275 1390.129261 Z M 2029.233275 914.642227 " stroke="#231f20" stroke-width="34" stroke-opacity="1" stroke-miterlimit="10"/><path fill="#00ff00" d="M 182.167969 242.496094 L 170.710938 242.496094 L 170.710938 237.691406 L 182.167969 237.691406 L 182.167969 242.496094 " fill-opacity="1" fill-rule="nonzero"/><path stroke-linecap="round" transform="matrix(0.0516152, 0, 0, -0.0517479, 74.584951, 288.467559)" fill="none" stroke-linejoin="round" d="M 2084.328486 888.373059 L 1862.358355 888.373059 L 1862.358355 981.22098 L 2084.328486 981.22098 Z M 2084.328486 888.373059 " stroke="#231f20" stroke-width="34" stroke-opacity="1" stroke-miterlimit="10"/><path fill="#00ff00" d="M 172.265625 242.578125 L 172.265625 251.460938 C 172.265625 251.460938 173.777344 251.960938 177.886719 253.191406 C 182 254.421875 184.816406 254.65625 186.726562 253.929688 C 189.273438 252.960938 189.179688 248.921875 187.28125 247.410156 C 184.886719 245.5 182.890625 246.546875 180.851562 246.300781 C 178.8125 246.054688 178.898438 242.578125 178.898438 242.578125 L 172.265625 242.578125 " fill-opacity="1" fill-rule="nonzero"/><g clip-path="url(#48a06f2ba5)"><path stroke-linecap="round" transform="matrix(0.0516152, 0, 0, -0.0517479, 74.584951, 288.467559)" fill="none" stroke-linejoin="round" d="M 1892.479089 886.78785 L 1892.479089 715.132426 C 1892.479089 715.132426 1921.76734 705.470204 2001.382948 681.692077 C 2081.074236 657.913951 2135.639686 653.384785 2172.647321 667.425202 C 2221.990835 686.145758 2220.174509 764.198401 2183.393915 793.411527 C 2137.00193 830.324237 2098.32933 810.093958 2058.824247 814.849583 C 2019.319164 819.605209 2020.984129 886.78785 2020.984129 886.78785 Z M 1892.479089 886.78785 " stroke="#231f20" stroke-width="34" stroke-opacity="1" stroke-miterlimit="10"/></g><path fill="#00ff00" d="M 179.746094 252.039062 C 177.011719 251.515625 174.792969 250.636719 172.265625 249.636719 L 172.265625 251.460938 C 172.265625 251.460938 173.777344 251.960938 177.886719 253.191406 C 182 254.421875 184.816406 254.65625 186.726562 253.929688 C 188.003906 253.441406 188.40625 252.625 188.535156 251.78125 C 185.710938 252.636719 182.679688 252.601562 179.746094 252.039062 " fill-opacity="1" fill-rule="nonzero"/><g clip-path="url(#810bb5ab4e)"><path stroke-linecap="round" transform="matrix(0.0516152, 0, 0, -0.0517479, 74.584951, 288.467559)" fill="none" stroke-linejoin="round" d="M 2037.40674 703.960481 C 1984.430575 714.075621 1941.444201 731.059996 1892.479089 750.384442 L 1892.479089 715.132426 C 1892.479089 715.132426 1921.76734 705.470204 2001.382948 681.692077 C 2081.074236 657.913951 2135.639686 653.384785 2172.647321 667.425202 C 2197.394758 676.860966 2205.189823 692.637564 2207.68727 708.942565 C 2152.97046 692.411106 2094.242597 693.090481 2037.40674 703.960481 Z M 2037.40674 703.960481 " stroke="#231f20" stroke-width="34" stroke-opacity="1" stroke-miterlimit="10"/></g><path stroke-linecap="round" transform="matrix(0.0516152, 0, 0, -0.0517479, 74.584951, 288.467559)" fill="none" stroke-linejoin="round" d="M 2051.407584 816.585764 C 2051.407584 816.585764 2025.222222 825.266667 2001.382948 798.544583 " stroke="#231f20" stroke-width="34" stroke-opacity="1" stroke-miterlimit="10"/><path stroke-linecap="round" transform="matrix(0.0516152, 0, 0, -0.0517479, 74.584951, 288.467559)" fill="none" stroke-linejoin="round" d="M 2093.334434 815.076042 C 2093.334434 815.076042 2058.975607 819.152292 2040.963711 784.202221 " stroke="#231f20" stroke-width="34" stroke-opacity="1" stroke-miterlimit="10"/><path stroke-linecap="round" transform="matrix(0.0516152, 0, 0, -0.0517479, 74.584951, 288.467559)" fill="none" stroke-linejoin="round" d="M 2026.054705 822.775625 C 2013.718826 836.891529 1999.036861 849.044793 1982.91697 858.556044 C 1980.495203 859.99028 1977.165273 861.273544 1975.121906 859.386391 C 1973.07854 857.423752 1974.289424 853.951391 1975.727348 851.460349 C 1985.490098 835.230834 2002.820872 823.681459 2021.589571 821.039445 C 2020.454367 833.343681 2020.984129 845.79889 2023.254536 858.027641 C 2025.524943 869.727989 2030.292798 882.183197 2040.888031 887.542712 C 2042.477316 888.373059 2044.520682 888.976948 2046.034287 887.995628 C 2046.94245 887.467225 2047.472211 886.485906 2047.926293 885.580073 C 2053.148229 874.257155 2048.985816 860.745141 2042.401636 850.177085 C 2035.893135 839.609029 2026.887187 830.626181 2020.984129 819.605209 " stroke="#231f20" stroke-width="34" stroke-opacity="1" stroke-miterlimit="10"/><path fill="#00ff00" d="M 206.832031 240.09375 L 200.472656 240.09375 L 200.472656 215.484375 L 206.832031 215.484375 L 206.832031 240.09375 " fill-opacity="1" fill-rule="nonzero"/><path stroke-linecap="round" transform="matrix(0.0516152, 0, 0, -0.0517479, 74.584951, 288.467559)" fill="none" stroke-linejoin="round" d="M 2562.173494 934.797019 L 2438.96607 934.797019 L 2438.96607 1410.35954 L 2562.173494 1410.35954 Z M 2562.173494 934.797019 " stroke="#231f20" stroke-width="34" stroke-opacity="1" stroke-miterlimit="10"/><path fill="#00ff00" d="M 209.675781 241.453125 L 198.21875 241.453125 L 198.21875 236.644531 L 209.675781 236.644531 L 209.675781 241.453125 " fill-opacity="1" fill-rule="nonzero"/><path stroke-linecap="round" transform="matrix(0.0516152, 0, 0, -0.0517479, 74.584951, 288.467559)" fill="none" stroke-linejoin="round" d="M 2617.268706 908.527851 L 2395.298574 908.527851 L 2395.298574 1001.451258 L 2617.268706 1001.451258 Z M 2617.268706 908.527851 " stroke="#231f20" stroke-width="34" stroke-opacity="1" stroke-miterlimit="10"/><path fill="#00ff00" d="M 199.773438 241.535156 L 199.773438 250.414062 C 199.773438 250.414062 201.28125 250.917969 205.394531 252.148438 C 209.507812 253.378906 212.324219 253.613281 214.230469 252.886719 C 216.78125 251.917969 216.683594 247.878906 214.785156 246.363281 C 212.390625 244.457031 210.398438 245.503906 208.359375 245.253906 C 206.316406 245.011719 206.40625 241.535156 206.40625 241.535156 L 199.773438 241.535156 " fill-opacity="1" fill-rule="nonzero"/><path stroke-linecap="round" transform="matrix(0.0516152, 0, 0, -0.0517479, 74.584951, 288.467559)" fill="none" stroke-linejoin="round" d="M 2425.419308 906.942643 L 2425.419308 735.362705 C 2425.419308 735.362705 2454.631879 725.624996 2534.323167 701.84687 C 2614.014455 678.068744 2668.579905 673.539577 2705.51186 687.579994 C 2754.931054 706.300551 2753.039048 784.353193 2716.258454 813.641805 C 2669.866469 850.479029 2631.269549 830.248751 2591.764466 835.079862 C 2552.183703 839.760001 2553.924348 906.942643 2553.924348 906.942643 Z M 2425.419308 906.942643 " stroke="#231f20" stroke-width="34" stroke-opacity="1" stroke-miterlimit="10"/><path fill="#00ff00" d="M 207.253906 250.996094 C 204.519531 250.46875 202.300781 249.589844 199.773438 248.59375 L 199.773438 250.414062 C 199.773438 250.414062 201.28125 250.917969 205.394531 252.148438 C 209.507812 253.378906 212.324219 253.613281 214.230469 252.886719 C 215.511719 252.398438 215.910156 251.578125 216.039062 250.738281 C 213.21875 251.59375 210.1875 251.554688 207.253906 250.996094 " fill-opacity="1" fill-rule="nonzero"/><path stroke-linecap="round" transform="matrix(0.0516152, 0, 0, -0.0517479, 74.584951, 288.467559)" fill="none" stroke-linejoin="round" d="M 2570.34696 724.115274 C 2517.370795 734.305899 2474.384421 751.290275 2425.419308 770.539234 L 2425.419308 735.362705 C 2425.419308 735.362705 2454.631879 725.624996 2534.323167 701.84687 C 2614.014455 678.068744 2668.579905 673.539577 2705.51186 687.579994 C 2730.334978 697.015759 2738.054362 712.867843 2740.551809 729.097357 C 2685.910679 712.565898 2627.182816 713.320759 2570.34696 724.115274 Z M 2570.34696 724.115274 " stroke="#231f20" stroke-width="34" stroke-opacity="1" stroke-miterlimit="10"/><path stroke-linecap="round" transform="matrix(0.0516152, 0, 0, -0.0517479, 74.584951, 288.467559)" fill="none" stroke-linejoin="round" d="M 2584.347803 836.816043 C 2584.347803 836.816043 2558.086761 845.42146 2534.323167 818.699375 " stroke="#231f20" stroke-width="34" stroke-opacity="1" stroke-miterlimit="10"/><path stroke-linecap="round" transform="matrix(0.0516152, 0, 0, -0.0517479, 74.584951, 288.467559)" fill="none" stroke-linejoin="round" d="M 2626.274654 835.230834 C 2626.274654 835.230834 2591.915827 839.382571 2573.903931 804.4325 " stroke="#231f20" stroke-width="34" stroke-opacity="1" stroke-miterlimit="10"/><path stroke-linecap="round" transform="matrix(0.0516152, 0, 0, -0.0517479, 74.584951, 288.467559)" fill="none" stroke-linejoin="round" d="M 2558.994924 842.930418 C 2546.659046 857.046321 2531.97708 869.199586 2515.78151 878.786322 C 2513.435422 880.145072 2510.105492 881.428336 2508.062126 879.541183 C 2505.943079 877.654031 2507.153963 874.106183 2508.667567 871.615141 C 2518.430318 855.385627 2535.761092 843.911737 2554.52979 841.194237 C 2553.318906 853.498474 2553.924348 866.029169 2556.194755 878.182433 C 2558.465163 889.882781 2563.233017 902.413476 2573.75257 907.77299 C 2575.417535 908.527851 2577.385221 909.13174 2578.974506 908.225907 C 2579.806989 907.697504 2580.412431 906.716185 2580.790832 905.734865 C 2586.012768 894.411948 2581.926036 880.899933 2575.341855 870.331877 C 2568.757675 859.763821 2559.751727 850.780974 2553.924348 839.835487 " stroke="#231f20" stroke-width="34" stroke-opacity="1" stroke-miterlimit="10"/><path fill="#00ff00" d="M 242.601562 189.863281 C 241.992188 187.910156 240.757812 186.320312 239.179688 185.242188 C 239.890625 183.386719 240.148438 181.238281 239.816406 179.019531 C 239.292969 175.503906 237.417969 172.59375 234.953125 170.976562 C 234.984375 167.046875 232.613281 162.890625 228.488281 160.390625 C 225.011719 158.28125 221.082031 157.824219 217.863281 158.835938 C 215.820312 155.386719 211.566406 153.667969 207.519531 154.933594 C 205.929688 155.429688 204.578125 156.320312 203.535156 157.460938 C 201.378906 156.132812 198.578125 155.519531 195.636719 155.941406 C 192.0625 156.453125 189.113281 158.375 187.5 160.902344 C 187.199219 160.96875 186.90625 161.042969 186.617188 161.136719 C 184.570312 157.683594 180.320312 155.964844 176.269531 157.230469 C 174.683594 157.726562 173.332031 158.617188 172.289062 159.757812 C 170.132812 158.429688 167.328125 157.816406 164.390625 158.238281 C 160.523438 158.792969 157.386719 160.992188 155.882812 163.828125 C 153.441406 163.460938 150.707031 163.949219 148.207031 165.390625 C 144.246094 167.679688 142.042969 171.691406 142.359375 175.378906 C 138.179688 175.042969 133.898438 178.179688 132.242188 183.117188 C 130.777344 187.476562 131.792969 191.960938 134.484375 194.511719 C 133.367188 196.542969 133.039062 198.992188 133.773438 201.359375 C 134.882812 204.925781 138.070312 207.273438 141.625 207.519531 C 141.378906 212.140625 144.777344 216.867188 150.15625 218.839844 C 152.871094 219.835938 155.652344 219.960938 158.101562 219.371094 C 160.207031 222.636719 164.335938 224.230469 168.277344 223 C 169.6875 222.5625 170.910156 221.808594 171.894531 220.84375 C 174.625 224.0625 179.644531 225.488281 184.671875 224.089844 C 187.632812 223.265625 190.078125 221.601562 191.734375 219.527344 C 193.921875 221.039062 196.769531 221.5625 199.527344 220.703125 C 200.933594 220.261719 202.15625 219.507812 203.144531 218.546875 C 205.871094 221.765625 210.890625 223.191406 215.921875 221.792969 C 220.78125 220.4375 224.277344 216.828125 225.125 212.824219 C 228.921875 214.542969 233.976562 213.082031 237.21875 209.054688 C 239.617188 206.074219 240.429688 202.417969 239.6875 199.355469 C 242.429688 197.125 243.703125 193.40625 242.601562 189.863281 " fill-opacity="1" fill-rule="nonzero"/><path stroke-linecap="round" transform="matrix(0.0516152, 0, 0, -0.0517479, 74.584951, 288.467559)" fill="none" stroke-linejoin="round" d="M 3255.177412 1905.472965 C 3243.371295 1943.216022 3219.456341 1973.938871 3188.881525 1994.773038 C 3202.655328 2030.628942 3207.650224 2072.146305 3201.217404 2115.022418 C 3191.076252 2182.959921 3154.749739 2239.197077 3106.99551 2270.448328 C 3107.600952 2346.387359 3061.663049 2426.704585 2981.74472 2475.015698 C 2914.389311 2515.7782 2838.254994 2524.610075 2775.89448 2505.059172 C 2736.313716 2571.713411 2653.89794 2604.927301 2575.493216 2580.4698 C 2544.69136 2570.883064 2518.505998 2553.672229 2498.299375 2531.630284 C 2456.523885 2557.295563 2402.261156 2569.146883 2345.273939 2560.994383 C 2276.026523 2551.105702 2218.887945 2513.966533 2187.632008 2465.127017 C 2181.80463 2463.843753 2176.128612 2462.409517 2170.528275 2460.59785 C 2130.871831 2527.327575 2048.531735 2560.541466 1970.05133 2536.083965 C 1939.325155 2526.497228 1913.139793 2509.286394 1892.93317 2487.244449 C 1851.15768 2512.909728 1796.819271 2524.761048 1739.907734 2516.608547 C 1664.984301 2505.889519 1604.213071 2463.390837 1575.076181 2408.587917 C 1527.776033 2415.683612 1474.799868 2406.247848 1426.364518 2378.393472 C 1349.624759 2334.158609 1306.941106 2256.634369 1313.071205 2185.375477 C 1232.093353 2191.867283 1149.147814 2131.251933 1117.059394 2035.837484 C 1088.679306 1951.594981 1108.356167 1864.936921 1160.49985 1815.644489 C 1138.855302 1776.391709 1132.498163 1729.061915 1146.726047 1683.31733 C 1168.219234 1614.398507 1229.974306 1569.031353 1298.843321 1564.275727 C 1294.075466 1474.975654 1359.917271 1383.637456 1464.128955 1345.516968 C 1516.726719 1326.268009 1570.611047 1323.852453 1618.062554 1335.250856 C 1658.854201 1272.144465 1738.848211 1241.34613 1815.209568 1265.124256 C 1842.530133 1273.578701 1866.218047 1288.147521 1885.289466 1306.792591 C 1938.189951 1244.592033 2035.439054 1217.039601 2132.839517 1244.06363 C 2190.205136 1259.9912 2237.580963 1292.148285 2269.669383 1332.231412 C 2312.050315 1303.018285 2367.221207 1292.903146 2420.651453 1309.510091 C 2447.896338 1318.040022 2471.584252 1332.608842 2490.731352 1351.10294 C 2543.556156 1288.977868 2640.805259 1261.425436 2738.281402 1288.449465 C 2832.427616 1314.643147 2900.161426 1384.392317 2916.584038 1461.765584 C 2990.145227 1428.551694 3088.075452 1456.783501 3150.890047 1534.609684 C 3197.357712 1592.20559 3213.099201 1662.860593 3198.719956 1722.041707 C 3251.847481 1765.144278 3276.519238 1837.007059 3255.177412 1905.472965 Z M 3255.177412 1905.472965 " stroke="#231f20" stroke-width="34" stroke-opacity="1" stroke-miterlimit="10"/><path fill="#00ff00" d="M 239.417969 190.859375 C 239.054688 189.6875 238.324219 188.699219 237.304688 188.003906 C 236.027344 187.132812 235.511719 185.492188 236.066406 184.042969 C 236.597656 182.660156 236.753906 181.09375 236.519531 179.507812 C 236.15625 177.074219 234.886719 174.925781 233.125 173.769531 C 232.179688 173.144531 231.613281 172.085938 231.621094 170.949219 C 231.644531 168.074219 229.734375 165.050781 226.761719 163.25 C 225.050781 162.210938 223.167969 161.664062 221.320312 161.664062 C 220.453125 161.664062 219.625 161.785156 218.859375 162.023438 C 218.53125 162.128906 218.195312 162.179688 217.863281 162.179688 C 216.710938 162.179688 215.609375 161.578125 214.996094 160.542969 C 214.015625 158.886719 212.1875 157.859375 210.222656 157.859375 C 209.644531 157.859375 209.070312 157.945312 208.507812 158.121094 C 207.539062 158.425781 206.671875 158.976562 205.992188 159.71875 C 205.34375 160.429688 204.445312 160.800781 203.535156 160.800781 C 202.933594 160.800781 202.332031 160.640625 201.792969 160.304688 C 200.5625 159.550781 199.070312 159.148438 197.472656 159.148438 C 197.023438 159.148438 196.5625 159.183594 196.109375 159.25 C 193.628906 159.601562 191.460938 160.894531 190.304688 162.703125 C 189.832031 163.445312 189.082031 163.972656 188.226562 164.164062 C 187.980469 164.21875 187.78125 164.269531 187.613281 164.324219 C 187.285156 164.425781 186.945312 164.476562 186.617188 164.476562 C 185.460938 164.476562 184.363281 163.875 183.75 162.839844 C 182.769531 161.183594 180.9375 160.15625 178.976562 160.15625 C 178.398438 160.15625 177.820312 160.246094 177.261719 160.421875 C 176.292969 160.722656 175.425781 161.273438 174.746094 162.015625 C 174.09375 162.726562 173.195312 163.101562 172.285156 163.101562 C 171.6875 163.101562 171.085938 162.9375 170.542969 162.605469 C 169.316406 161.847656 167.824219 161.449219 166.222656 161.449219 C 165.773438 161.449219 165.316406 161.480469 164.859375 161.546875 C 162.195312 161.925781 159.882812 163.402344 158.824219 165.394531 C 158.238281 166.496094 157.101562 167.167969 155.882812 167.167969 C 155.71875 167.167969 155.554688 167.15625 155.390625 167.132812 C 155.035156 167.078125 154.667969 167.050781 154.296875 167.050781 C 152.800781 167.050781 151.269531 167.476562 149.871094 168.285156 C 147.152344 169.855469 145.46875 172.59375 145.679688 175.09375 C 145.761719 176.074219 145.414062 177.039062 144.722656 177.734375 C 144.09375 178.367188 143.242188 178.722656 142.359375 178.722656 C 142.269531 178.722656 142.183594 178.71875 142.09375 178.707031 C 141.980469 178.699219 141.863281 178.695312 141.746094 178.695312 C 139.136719 178.695312 136.464844 181.003906 135.398438 184.183594 C 134.394531 187.175781 134.945312 190.351562 136.773438 192.082031 C 137.878906 193.128906 138.136719 194.792969 137.402344 196.125 C 136.675781 197.445312 136.515625 198.953125 136.957031 200.367188 C 137.628906 202.527344 139.550781 204.023438 141.855469 204.183594 C 143.671875 204.308594 145.050781 205.875 144.953125 207.695312 C 144.78125 210.925781 147.449219 214.292969 151.300781 215.699219 C 152.539062 216.152344 153.804688 216.382812 155.066406 216.382812 C 155.84375 216.382812 156.601562 216.296875 157.324219 216.121094 C 157.582031 216.058594 157.84375 216.027344 158.101562 216.027344 C 159.214844 216.027344 160.277344 216.589844 160.902344 217.558594 C 161.902344 219.109375 163.691406 220.074219 165.574219 220.074219 C 166.148438 220.074219 166.726562 219.984375 167.285156 219.808594 C 168.15625 219.539062 168.925781 219.082031 169.574219 218.449219 C 170.199219 217.839844 171.03125 217.503906 171.894531 217.503906 C 171.949219 217.503906 172.003906 217.503906 172.054688 217.507812 C 172.976562 217.550781 173.835938 217.976562 174.4375 218.679688 C 175.820312 220.3125 178.195312 221.285156 180.792969 221.285156 C 181.785156 221.285156 182.792969 221.144531 183.78125 220.871094 C 185.949219 220.265625 187.851562 219.046875 189.132812 217.4375 C 189.789062 216.621094 190.757812 216.1875 191.738281 216.1875 C 192.394531 216.1875 193.050781 216.378906 193.628906 216.777344 C 194.570312 217.429688 195.675781 217.773438 196.828125 217.773438 C 197.402344 217.773438 197.976562 217.6875 198.535156 217.511719 C 199.402344 217.242188 200.171875 216.785156 200.820312 216.152344 C 201.445312 215.546875 202.277344 215.207031 203.144531 215.207031 C 203.199219 215.207031 203.25 215.207031 203.300781 215.210938 C 204.222656 215.253906 205.085938 215.679688 205.683594 216.382812 C 207.066406 218.011719 209.441406 218.988281 212.039062 218.988281 C 213.03125 218.988281 214.039062 218.847656 215.027344 218.574219 C 218.507812 217.601562 221.253906 215.015625 221.863281 212.128906 C 222.070312 211.140625 222.714844 210.300781 223.617188 209.84375 C 224.089844 209.601562 224.605469 209.480469 225.125 209.480469 C 225.589844 209.480469 226.058594 209.578125 226.496094 209.777344 C 227.101562 210.050781 227.777344 210.191406 228.511719 210.191406 C 230.707031 210.191406 232.992188 208.980469 234.625 206.957031 C 236.273438 204.910156 236.96875 202.300781 236.445312 200.144531 C 236.144531 198.886719 236.589844 197.574219 237.589844 196.757812 C 239.363281 195.316406 240.085938 193 239.417969 190.859375 " fill-opacity="1" fill-rule="nonzero"/><path stroke-linecap="round" transform="matrix(0.0516152, 0, 0, -0.0517479, 74.584951, 288.467559)" fill="none" stroke-linejoin="round" d="M 2583.666681 1952.651786 C 2610.684525 1977.713176 2629.150503 2035.082623 2622.869043 2077.430333 C 2612.879252 2144.386517 2571.709204 2209.304575 2502.91587 2224.703743 C 2503.521311 2299.585968 2458.18885 2378.770902 2379.330045 2426.478127 C 2312.882798 2466.636739 2237.808004 2475.393129 2176.279973 2456.068683 " stroke="#231f20" stroke-width="34" stroke-opacity="1" stroke-miterlimit="10"/><path stroke-linecap="round" transform="matrix(0.0516152, 0, 0, -0.0517479, 74.584951, 288.467559)" fill-opacity="1" fill="#00ff00" fill-rule="nonzero" stroke-linejoin="round" d="M 1315.644333 2231.044576 C 1315.644333 2231.044576 1293.772745 2141.895475 1385.42151 2099.321307 " stroke="#231f20" stroke-width="34" stroke-opacity="1" stroke-miterlimit="10"/><path stroke-linecap="round" transform="matrix(0.0516152, 0, 0, -0.0517479, 74.584951, 288.467559)" fill="none" stroke-linejoin="round" d="M 1916.923805 2508.98445 C 1916.923805 2508.98445 1842.530133 2470.562017 1904.436566 2351.746873 " stroke="#231f20" stroke-width="34" stroke-opacity="1" stroke-miterlimit="10"/><path stroke-linecap="round" transform="matrix(0.0516152, 0, 0, -0.0517479, 74.584951, 288.467559)" fill="none" stroke-linejoin="round" d="M 1772.147514 1468.25739 C 1772.147514 1468.25739 1702.143296 1499.433155 1643.566794 1434.288638 C 1607.921403 1394.507456 1615.035345 1329.136481 1644.626317 1307.094536 " stroke="#231f20" stroke-width="34" stroke-opacity="1" stroke-miterlimit="10"/><path stroke-linecap="round" transform="matrix(0.0516152, 0, 0, -0.0517479, 74.584951, 288.467559)" fill="none" stroke-linejoin="round" d="M 2514.494946 2547.180424 C 2514.494946 2547.180424 2480.211799 2519.929936 2498.299375 2470.562017 " stroke="#231f20" stroke-width="34" stroke-opacity="1" stroke-miterlimit="10"/><path stroke-linecap="round" transform="matrix(0.0516152, 0, 0, -0.0517479, 74.584951, 288.467559)" fill="none" stroke-linejoin="round" d="M 1300.735326 1528.268851 C 1300.735326 1528.268851 1285.220878 1631.458369 1367.636655 1657.878509 " stroke="#231f20" stroke-width="34" stroke-opacity="1" stroke-miterlimit="10"/><path stroke-linecap="round" transform="matrix(0.0516152, 0, 0, -0.0517479, 74.584951, 288.467559)" fill-opacity="1" fill="#00ff00" fill-rule="nonzero" stroke-linejoin="round" d="M 2905.837444 1427.796833 C 2905.837444 1427.796833 2935.655457 1490.903224 2861.186105 1554.009616 " stroke="#231f20" stroke-width="34" stroke-opacity="1" stroke-miterlimit="10"/><path fill="#231f20" d="M 197.824219 191.941406 C 197.824219 194.4375 196.574219 196.460938 195.035156 196.460938 C 193.5 196.460938 192.25 194.4375 192.25 191.941406 C 192.25 189.445312 193.5 187.421875 195.035156 187.421875 C 196.574219 187.421875 197.824219 189.445312 197.824219 191.941406 " fill-opacity="1" fill-rule="nonzero"/><path fill="#00ff00" d="M 197.625 190.816406 C 197.625 191.769531 197.148438 192.542969 196.558594 192.542969 C 195.972656 192.542969 195.496094 191.769531 195.496094 190.816406 C 195.496094 189.863281 195.972656 189.089844 196.558594 189.089844 C 197.148438 189.089844 197.625 189.863281 197.625 190.816406 " fill-opacity="1" fill-rule="nonzero"/><path fill="#231f20" d="M 223.515625 190.816406 C 223.515625 193.3125 222.265625 195.335938 220.730469 195.335938 C 219.191406 195.335938 217.945312 193.3125 217.945312 190.816406 C 217.945312 188.320312 219.191406 186.296875 220.730469 186.296875 C 222.265625 186.296875 223.515625 188.320312 223.515625 190.816406 " fill-opacity="1" fill-rule="nonzero"/><path stroke-linecap="round" transform="matrix(0.0516152, 0, 0, -0.0517479, 74.584951, 288.467559)" fill="none" stroke-linejoin="round" d="M 1591.196071 1699.697817 C 1579.162913 1739.101569 1583.703727 1783.185459 1603.607629 1819.267822 C 1623.511531 1855.274699 1658.4758 1882.676158 1698.207924 1893.395186 C 1663.773417 1922.683799 1657.264916 1976.203454 1674.671371 2017.947275 C 1692.077825 2059.691097 1728.9341 2090.564917 1768.893264 2111.701029 " stroke="#231f20" stroke-width="34" stroke-opacity="1" stroke-miterlimit="10"/><path stroke-linecap="round" transform="matrix(0.0516152, 0, 0, -0.0517479, 74.584951, 288.467559)" fill="none" stroke-linejoin="round" d="M 1692.607587 2066.711305 C 1696.99704 2121.891655 1662.713893 2178.12881 1611.629734 2199.49138 " stroke="#231f20" stroke-width="34" stroke-opacity="1" stroke-miterlimit="10"/><path stroke-linecap="round" transform="matrix(0.0516152, 0, 0, -0.0517479, 74.584951, 288.467559)" fill="none" stroke-linejoin="round" d="M 1165.721786 1820.098169 C 1228.612062 1793.678029 1309.514234 1823.646017 1339.862008 1884.714283 " stroke="#231f20" stroke-width="34" stroke-opacity="1" stroke-miterlimit="10"/><path stroke-linecap="round" transform="matrix(0.0516152, 0, 0, -0.0517479, 74.584951, 288.467559)" fill="none" stroke-linejoin="round" d="M 1387.464876 1804.397057 C 1404.341569 1829.98685 1439.078797 1835.497337 1469.653612 1837.158031 C 1492.054962 1838.365809 1515.061754 1838.74324 1536.40358 1831.723031 C 1557.669726 1824.702822 1577.346588 1809.077197 1583.703727 1787.488168 " stroke="#231f20" stroke-width="34" stroke-opacity="1" stroke-miterlimit="10"/><path stroke-linecap="round" transform="matrix(0.0516152, 0, 0, -0.0517479, 74.584951, 288.467559)" fill="none" stroke-linejoin="round" d="M 1446.798181 1445.9135 C 1427.04564 1491.280655 1435.824547 1547.744268 1468.518409 1584.958923 C 1478.886601 1596.810243 1492.282003 1607.15184 1507.872131 1608.812535 " stroke="#231f20" stroke-width="34" stroke-opacity="1" stroke-miterlimit="10"/><path stroke-linecap="round" transform="matrix(0.0516152, 0, 0, -0.0517479, 74.584951, 288.467559)" fill="none" stroke-linejoin="round" d="M 1844.422139 1639.384411 C 1891.722287 1647.385939 1939.779236 1617.493438 1964.072592 1576.127047 C 1988.365947 1534.760657 1992.604041 1484.411418 1988.365947 1436.628708 C 1988.668668 1439.346208 1988.971389 1442.21468 1989.19843 1445.007667 " stroke="#231f20" stroke-width="34" stroke-opacity="1" stroke-miterlimit="10"/><path stroke-linecap="round" transform="matrix(0.0516152, 0, 0, -0.0517479, 74.584951, 288.467559)" fill="none" stroke-linejoin="round" d="M 1935.238422 1610.47323 C 1934.5573 1655.085523 1960.591301 1699.093928 2000.096384 1719.928095 " stroke="#231f20" stroke-width="34" stroke-opacity="1" stroke-miterlimit="10"/><path stroke-linecap="round" transform="matrix(0.0516152, 0, 0, -0.0517479, 74.584951, 288.467559)" fill="none" stroke-linejoin="round" d="M 1718.792948 1703.245664 C 1694.499592 1690.262052 1689.201976 1658.25594 1687.007249 1630.778994 C 1685.417964 1610.020313 1684.05572 1588.657742 1690.715581 1569.031353 C 1697.451122 1549.404963 1714.252134 1531.741212 1734.988519 1530.533434 " stroke="#231f20" stroke-width="34" stroke-opacity="1" stroke-miterlimit="10"/><path stroke-linecap="round" transform="matrix(0.0516152, 0, 0, -0.0517479, 74.584951, 288.467559)" fill="none" stroke-linejoin="round" d="M 2020.227327 2018.702136 C 2091.745149 2022.249984 2155.694948 2084.29957 2161.370966 2155.709434 " stroke="#231f20" stroke-width="34" stroke-opacity="1" stroke-miterlimit="10"/><path stroke-linecap="round" transform="matrix(0.0516152, 0, 0, -0.0517479, 74.584951, 288.467559)" fill="none" stroke-linejoin="round" d="M 2758.942107 2196.320964 C 2793.906376 2131.780336 2876.700553 2097.660612 2947.007492 2118.645752 " stroke="#231f20" stroke-width="34" stroke-opacity="1" stroke-miterlimit="10"/><path stroke-linecap="round" transform="matrix(0.0516152, 0, 0, -0.0517479, 74.584951, 288.467559)" fill="none" stroke-linejoin="round" d="M 2090.004504 1598.395451 C 2187.329287 1595.979896 2275.194041 1510.001211 2279.659174 1412.775096 " stroke="#231f20" stroke-width="34" stroke-opacity="1" stroke-miterlimit="10"/><path stroke-linecap="round" transform="matrix(0.0516152, 0, 0, -0.0517479, 74.584951, 288.467559)" fill="none" stroke-linejoin="round" d="M 3036.915612 1885.922061 C 3078.161341 1827.722267 3092.389225 1751.254833 3074.982771 1682.034066 C 3065.749782 1645.347814 3042.288909 1606.547952 3004.751512 1601.943299 " stroke="#231f20" stroke-width="34" stroke-opacity="1" stroke-miterlimit="10"/><path stroke-linecap="round" transform="matrix(0.0516152, 0, 0, -0.0517479, 74.584951, 288.467559)" fill="none" stroke-linejoin="round" d="M 3085.199603 1800.245321 C 3095.340754 1843.951781 3137.721686 1877.920533 3182.524386 1878.222477 " stroke="#231f20" stroke-width="34" stroke-opacity="1" stroke-miterlimit="10"/><path stroke-linecap="round" transform="matrix(0.0516152, 0, 0, -0.0517479, 74.584951, 288.467559)" fill="none" stroke-linejoin="round" d="M 2547.113127 2425.421321 C 2593.12671 2441.348891 2645.497434 2437.650072 2688.786528 2415.381668 C 2731.999943 2393.18875 2765.601967 2352.803679 2779.451451 2306.15326 C 2809.950586 2342.537567 2859.52114 2354.91729 2904.777921 2340.650414 C 2949.959021 2326.459025 2984.620569 2283.280967 2988.782982 2236.02666 " stroke="#231f20" stroke-width="34" stroke-opacity="1" stroke-miterlimit="10"/><path stroke-linecap="round" transform="matrix(0.0516152, 0, 0, -0.0517479, 74.584951, 288.467559)" fill="none" stroke-linejoin="round" d="M 1939.779236 2204.322492 C 1946.212056 2260.786105 1986.700982 2312.041177 2040.206909 2331.290136 C 2093.637155 2350.539095 2157.511274 2336.876109 2198.454282 2297.472357 C 2219.417707 2351.293957 2292.449134 2376.959236 2342.54945 2348.199026 " stroke="#231f20" stroke-width="34" stroke-opacity="1" stroke-miterlimit="10"/><path fill="#00ff00" d="M 223.46875 201.679688 C 217.371094 201.679688 212.40625 196.703125 212.40625 190.589844 C 212.40625 184.472656 217.371094 179.496094 223.46875 179.496094 C 229.570312 179.496094 234.53125 184.472656 234.53125 190.589844 C 234.53125 196.703125 229.570312 201.679688 223.46875 201.679688 Z M 190.558594 203.046875 C 184.460938 203.046875 179.496094 198.070312 179.496094 191.957031 C 179.496094 185.839844 184.460938 180.863281 190.558594 180.863281 C 196.660156 180.863281 201.621094 185.839844 201.621094 191.957031 C 201.621094 198.070312 196.660156 203.046875 190.558594 203.046875 Z M 223.46875 176.992188 C 216.042969 176.992188 210 183.003906 209.910156 190.425781 L 204.078125 190.863281 C 203.519531 183.875 197.671875 178.355469 190.558594 178.355469 C 183.410156 178.355469 177.535156 183.9375 177.035156 190.984375 L 154.046875 187.21875 C 153.472656 187.03125 152.589844 187.003906 151.765625 187.488281 C 150.558594 188.203125 149.820312 189.773438 149.570312 192.15625 C 149.5 192.84375 149.996094 193.460938 150.683594 193.535156 C 151.371094 193.605469 151.984375 193.109375 152.058594 192.417969 C 152.28125 190.308594 152.84375 189.777344 153.011719 189.667969 C 153.121094 189.59375 153.21875 189.59375 153.273438 189.605469 C 153.375 189.660156 153.402344 189.652344 153.535156 189.671875 L 177.050781 193.523438 C 177.066406 193.527344 177.078125 193.527344 177.089844 193.527344 C 177.871094 200.289062 183.613281 205.554688 190.558594 205.554688 C 197.558594 205.554688 203.335938 200.207031 204.046875 193.378906 L 210.109375 192.925781 C 211.21875 199.3125 216.785156 204.183594 223.46875 204.183594 C 230.945312 204.183594 237.03125 198.085938 237.03125 190.589844 C 237.03125 183.089844 230.945312 176.992188 223.46875 176.992188 " fill-opacity="1" fill-rule="nonzero"/><path stroke-linecap="round" transform="matrix(0.0516152, 0, 0, -0.0517479, 74.584951, 288.467559)" fill="none" stroke-linejoin="round" d="M 2884.495618 1677.127469 C 2766.35877 1677.127469 2670.16919 1773.296778 2670.16919 1891.432547 C 2670.16919 2009.643803 2766.35877 2105.813112 2884.495618 2105.813112 C 3002.708146 2105.813112 3098.822045 2009.643803 3098.822045 1891.432547 C 3098.822045 1773.296778 3002.708146 1677.127469 2884.495618 1677.127469 Z M 2246.889632 1650.707329 C 2128.752785 1650.707329 2032.563205 1746.876638 2032.563205 1865.012407 C 2032.563205 1983.223663 2128.752785 2079.392972 2246.889632 2079.392972 C 2365.10216 2079.392972 2461.21606 1983.223663 2461.21606 1865.012407 C 2461.21606 1746.876638 2365.10216 1650.707329 2246.889632 1650.707329 Z M 2884.495618 2154.199712 C 2740.62749 2154.199712 2623.550165 2038.026582 2621.80952 1894.602964 L 2508.818928 1886.148519 C 2497.996654 2021.193178 2384.703341 2127.855058 2246.889632 2127.855058 C 2108.394801 2127.855058 1994.571727 2019.9854 1984.884657 1883.80845 L 1539.50647 1956.577064 C 1528.381475 1960.200398 1511.277742 1960.7288 1495.309212 1951.368522 C 1471.924019 1937.554563 1457.620455 1907.209145 1452.77692 1861.162616 C 1451.414676 1847.877059 1461.026065 1835.950253 1474.345787 1834.516017 C 1487.665508 1833.157267 1499.547305 1842.744004 1500.98523 1856.105046 C 1505.299003 1896.867548 1516.196957 1907.133659 1519.451207 1909.24727 C 1521.570254 1910.681507 1523.46226 1910.681507 1524.521783 1910.455048 C 1526.489469 1909.398243 1527.019231 1909.549215 1529.592359 1909.171784 L 1985.187378 1834.742476 C 1985.490098 1834.666989 1985.717139 1834.666989 1985.94418 1834.666989 C 2001.080227 1704.000525 2112.330173 1602.245243 2246.889632 1602.245243 C 2382.508615 1602.245243 2494.439683 1705.585734 2508.213486 1837.535462 L 2625.669212 1846.291851 C 2647.162399 1722.872054 2755.006734 1628.740869 2884.495618 1628.740869 C 3029.347589 1628.740869 3147.257396 1746.574694 3147.257396 1891.432547 C 3147.257396 2036.365887 3029.347589 2154.199712 2884.495618 2154.199712 Z M 2884.495618 2154.199712 " stroke="#231f20" stroke-width="34" stroke-opacity="1" stroke-miterlimit="10"/><path fill="#00ff00" d="M 223.328125 189.851562 C 223.328125 190.804688 222.855469 191.578125 222.265625 191.578125 C 221.679688 191.578125 221.203125 190.804688 221.203125 189.851562 C 221.203125 188.898438 221.679688 188.125 222.265625 188.125 C 222.855469 188.125 223.328125 188.898438 223.328125 189.851562 " fill-opacity="1" fill-rule="nonzero"/><path stroke-linecap="round" transform="matrix(0.0516152, 0, 0, -0.0517479, 74.584951, 288.467559)" fill="none" stroke-linejoin="round" d="M 2486.417578 1679.090108 C 2486.417578 1679.090108 2497.542573 1591.450729 2572.466006 1592.432048 C 2647.389439 1593.488854 2637.475329 1688.903302 2637.475329 1688.903302 " stroke="#231f20" stroke-width="34" stroke-opacity="1" stroke-miterlimit="10"/><path stroke-linecap="round" transform="matrix(0.0516152, 0, 0, -0.0517479, 74.584951, 288.467559)" fill-opacity="1" fill="#00ff00" fill-rule="nonzero" stroke-linejoin="round" d="M 1431.662134 1759.784764 C 1264.560174 1723.324971 1110.399534 1760.615111 1013.074751 1815.569002 C 891.229571 1884.336853 816.154778 2012.814219 782.704113 2185.224505 C 778.46602 2207.115478 792.845265 2228.25159 814.716853 2232.478812 C 836.588441 2236.706035 857.703227 2222.439159 862.017 2200.548186 C 890.92685 2051.387624 955.860493 1945.027689 1055.152962 1884.487825 C 1223.844207 1781.449279 1437.489512 1841.913656 1439.684239 1842.517545 " stroke="#231f20" stroke-width="34" stroke-opacity="1" stroke-miterlimit="10"/><path fill="#00ff00" d="M 121.484375 165.457031 C 122.382812 163.5625 120.96875 163.121094 120.410156 164.226562 C 120.015625 165.003906 119.320312 165.714844 118.941406 166.070312 C 119.160156 164.949219 119.285156 163.054688 119.5 161.859375 C 119.589844 161.347656 119.675781 160.753906 119.519531 160.242188 C 119.292969 159.492188 118.585938 159.570312 118.347656 160.214844 C 118.167969 160.707031 118.105469 161.253906 118.035156 161.773438 C 118.003906 162.019531 117.882812 164.222656 117.503906 164.1875 C 117.105469 164.148438 117.515625 159.269531 117.296875 158.683594 C 117.242188 158.535156 117.136719 158.398438 116.988281 158.339844 C 116.34375 158.097656 116.035156 159.082031 115.988281 159.523438 C 115.882812 160.496094 115.949219 161.277344 115.898438 162.40625 C 115.878906 162.808594 115.953125 163.277344 115.890625 163.679688 C 115.882812 163.738281 115.78125 164.101562 115.789062 164.121094 C 115.429688 163.386719 115.367188 160.472656 115.316406 159.949219 C 115.253906 159.394531 115.242188 158.613281 114.984375 158.105469 C 114.789062 157.726562 114.390625 157.523438 114.03125 157.847656 C 113.453125 158.367188 113.707031 159.335938 113.734375 160.011719 C 113.765625 160.703125 113.84375 161.394531 113.933594 162.082031 C 114.011719 162.65625 114.003906 163.253906 114.085938 163.828125 C 114.09375 163.902344 114.082031 164.632812 114.070312 164.585938 C 113.898438 163.746094 113.664062 163.1875 113.492188 162.566406 C 113.382812 162.167969 113.242188 161.660156 112.894531 161.394531 C 112.652344 161.214844 112.160156 161.042969 111.984375 161.375 C 111.710938 161.894531 111.992188 162.746094 112.144531 163.253906 C 112.324219 163.871094 112.488281 164.585938 112.695312 165.195312 C 113.042969 166.238281 113.289062 167.210938 113.566406 168.359375 C 113.847656 169.546875 114.070312 172.367188 114.070312 172.367188 L 118.460938 172.195312 C 118.460938 172.195312 118.347656 169.996094 118.4375 169.320312 C 118.796875 168.550781 120.992188 166.492188 121.484375 165.457031 " fill-opacity="1" fill-rule="nonzero"/><path stroke-linecap="round" transform="matrix(0.0516152, 0, 0, -0.0517479, 74.584951, 288.467559)" fill="none" stroke-linejoin="round" d="M 908.636026 2377.110208 C 926.04248 2413.720973 898.646234 2422.250904 887.823961 2400.888334 C 880.180257 2385.866597 866.709175 2372.128124 859.368192 2365.258888 C 863.606285 2386.923403 866.028053 2423.534168 870.190466 2446.632919 C 871.931111 2456.5216 873.596076 2467.99549 870.568867 2477.884171 C 866.179413 2492.377504 852.481291 2490.867782 847.864796 2478.412573 C 844.383505 2468.901323 843.172622 2458.333267 841.810377 2448.293614 C 841.204936 2443.537988 838.858848 2400.96382 831.517865 2401.643195 C 823.798481 2402.398056 831.744906 2496.680213 827.506813 2508.00313 C 826.44729 2510.871603 824.403923 2513.513617 821.528074 2514.645908 C 809.040835 2519.326047 803.062097 2500.303547 802.153934 2491.773616 C 800.110568 2472.977573 801.397132 2457.88035 800.413289 2436.064863 C 800.034887 2428.289793 801.472812 2419.23146 800.261928 2411.45639 C 800.110568 2410.324098 798.142881 2403.303889 798.294242 2402.926459 C 791.33166 2417.117848 790.120777 2473.43049 789.136933 2483.545629 C 787.92605 2494.264657 787.699009 2509.36188 782.704113 2519.175075 C 778.920102 2526.497228 771.200718 2530.422506 764.238136 2524.157159 C 753.037461 2514.117505 757.956676 2495.396949 758.486438 2482.337851 C 759.09188 2468.976809 760.605485 2455.615767 762.34613 2442.330211 C 763.859735 2431.233752 763.708374 2419.684376 765.297659 2408.587917 C 765.44902 2407.153681 765.221979 2393.037778 764.994938 2393.943611 C 761.665008 2410.173126 757.124194 2420.96764 753.794263 2432.969932 C 751.675217 2440.669516 748.950728 2450.482711 742.215187 2455.615767 C 737.523013 2459.088128 727.987303 2462.409517 724.581692 2455.993197 C 719.284076 2445.953544 724.733053 2429.497571 727.684582 2419.684376 C 731.165873 2407.75757 734.344443 2393.943611 738.355495 2382.167777 C 745.091036 2362.012985 749.858891 2343.216942 755.232188 2321.024025 C 760.681165 2298.076246 764.994938 2243.575271 764.994938 2243.575271 L 850.059523 2246.89666 C 850.059523 2246.89666 847.864796 2289.395343 849.605442 2302.454441 C 856.568023 2317.325205 899.100316 2357.106387 908.636026 2377.110208 Z M 908.636026 2377.110208 " stroke="#231f20" stroke-width="34" stroke-opacity="1" stroke-miterlimit="10"/><path fill="#00ff00" d="M 119.851562 175.292969 L 112.953125 175.703125 L 112.753906 172.320312 L 119.652344 171.914062 L 119.851562 175.292969 " fill-opacity="1" fill-rule="nonzero"/><path stroke-linecap="round" transform="matrix(0.0516152, 0, 0, -0.0517479, 74.584951, 288.467559)" fill="none" stroke-linejoin="round" d="M 877.001687 2187.036172 L 743.350391 2179.11013 L 739.490699 2244.481105 L 873.141995 2252.331661 Z M 877.001687 2187.036172 " stroke="#231f20" stroke-width="34" stroke-opacity="1" stroke-miterlimit="10"/><path fill="#00ff00" d="M 84.71875 162.316406 C 84.71875 158.269531 86.355469 154.957031 88.421875 154.679688 L 88.421875 154.660156 L 85.738281 154.660156 C 83.539062 154.660156 81.757812 158.089844 81.757812 162.316406 C 81.757812 166.542969 83.539062 169.972656 85.738281 169.972656 L 88.421875 169.972656 L 88.421875 169.949219 C 86.355469 169.675781 84.71875 166.363281 84.71875 162.316406 " fill-opacity="1" fill-rule="nonzero"/><g clip-path="url(#6085b57e73)"><path stroke-linecap="round" transform="matrix(0.0516152, 0, 0, -0.0517479, 74.584951, 288.467559)" fill="none" stroke-linejoin="round" d="M 196.333648 2437.801044 C 196.333648 2516.004658 228.043666 2580.016883 268.078511 2585.376397 L 268.078511 2585.753828 L 216.086189 2585.753828 C 173.478217 2585.753828 138.968029 2519.47702 138.968029 2437.801044 C 138.968029 2356.125068 173.478217 2289.848259 216.086189 2289.848259 L 268.078511 2289.848259 L 268.078511 2290.301176 C 228.043666 2295.585204 196.333648 2359.597429 196.333648 2437.801044 Z M 196.333648 2437.801044 " stroke="#231f20" stroke-width="34" stroke-opacity="1" stroke-miterlimit="10"/></g><path fill="#00ff00" d="M 108.957031 162.316406 C 108.957031 171.832031 104.945312 179.546875 99.996094 179.546875 C 95.050781 179.546875 91.039062 171.832031 91.039062 162.316406 C 91.039062 152.800781 95.050781 145.085938 99.996094 145.085938 C 104.945312 145.085938 108.957031 152.800781 108.957031 162.316406 " fill-opacity="1" fill-rule="nonzero"/><path stroke-linecap="round" transform="matrix(0.0516152, 0, 0, -0.0517479, 74.584951, 288.467559)" fill="none" stroke-linejoin="round" d="M 665.92951 2437.801044 C 665.92951 2253.916869 588.205908 2104.831793 492.319049 2104.831793 C 396.507871 2104.831793 318.784269 2253.916869 318.784269 2437.801044 C 318.784269 2621.685219 396.507871 2770.770295 492.319049 2770.770295 C 588.205908 2770.770295 665.92951 2621.685219 665.92951 2437.801044 Z M 665.92951 2437.801044 " stroke="#231f20" stroke-width="34" stroke-opacity="1" stroke-miterlimit="10"/><path fill="#00ff00" d="M 91.039062 162.316406 C 91.039062 153.203125 94.71875 145.75 99.371094 145.132812 L 99.371094 145.085938 L 93.332031 145.085938 C 88.382812 145.085938 84.375 152.800781 84.375 162.316406 C 84.375 171.832031 88.382812 179.546875 93.332031 179.546875 L 99.371094 179.546875 L 99.371094 179.5 C 94.71875 178.882812 91.039062 171.429688 91.039062 162.316406 " fill-opacity="1" fill-rule="nonzero"/><path stroke-linecap="round" transform="matrix(0.0516152, 0, 0, -0.0517479, 74.584951, 288.467559)" fill="none" stroke-linejoin="round" d="M 318.784269 2437.801044 C 318.784269 2613.910149 390.075051 2757.937655 480.210212 2769.864461 L 480.210212 2770.770295 L 363.208567 2770.770295 C 267.321709 2770.770295 189.673787 2621.685219 189.673787 2437.801044 C 189.673787 2253.916869 267.321709 2104.831793 363.208567 2104.831793 L 480.210212 2104.831793 L 480.210212 2105.737626 C 390.075051 2117.664432 318.784269 2261.691939 318.784269 2437.801044 Z M 318.784269 2437.801044 " stroke="#231f20" stroke-width="34" stroke-opacity="1" stroke-miterlimit="10"/><path fill="#00ff00" d="M 131.066406 167.328125 L 100.164062 167.328125 C 100.164062 167.328125 98.984375 165.863281 98.984375 162.316406 C 98.984375 158.769531 100.164062 157.304688 100.164062 157.304688 L 131.066406 157.304688 L 131.066406 167.328125 " fill-opacity="1" fill-rule="nonzero"/><path stroke-linecap="round" transform="matrix(0.0516152, 0, 0, -0.0517479, 74.584951, 288.467559)" fill="none" stroke-linejoin="round" d="M 1094.279644 2340.952359 L 495.573299 2340.952359 C 495.573299 2340.952359 472.717868 2369.259652 472.717868 2437.801044 C 472.717868 2506.342436 495.573299 2534.649729 495.573299 2534.649729 L 1094.279644 2534.649729 Z M 1094.279644 2340.952359 " stroke="#231f20" stroke-width="34" stroke-opacity="1" stroke-miterlimit="10"/><path fill="#00ff00" d="M 149.761719 162.316406 C 149.761719 171.832031 145.75 179.546875 140.804688 179.546875 C 135.855469 179.546875 131.84375 171.832031 131.84375 162.316406 C 131.84375 152.800781 135.855469 145.085938 140.804688 145.085938 C 145.75 145.085938 149.761719 152.800781 149.761719 162.316406 " fill-opacity="1" fill-rule="nonzero"/><path stroke-linecap="round" transform="matrix(0.0516152, 0, 0, -0.0517479, 74.584951, 288.467559)" fill="none" stroke-linejoin="round" d="M 1456.485251 2437.801044 C 1456.485251 2253.916869 1378.761649 2104.831793 1282.950471 2104.831793 C 1187.063612 2104.831793 1109.34001 2253.916869 1109.34001 2437.801044 C 1109.34001 2621.685219 1187.063612 2770.770295 1282.950471 2770.770295 C 1378.761649 2770.770295 1456.485251 2621.685219 1456.485251 2437.801044 Z M 1456.485251 2437.801044 " stroke="#231f20" stroke-width="34" stroke-opacity="1" stroke-miterlimit="10"/><path fill="#00ff00" d="M 131.84375 162.316406 C 131.84375 153.203125 135.523438 145.75 140.179688 145.132812 L 140.179688 145.085938 L 134.136719 145.085938 C 129.191406 145.085938 125.179688 152.800781 125.179688 162.316406 C 125.179688 171.832031 129.191406 179.546875 134.136719 179.546875 L 140.179688 179.546875 L 140.179688 179.5 C 135.523438 178.882812 131.84375 171.429688 131.84375 162.316406 " fill-opacity="1" fill-rule="nonzero"/><path stroke-linecap="round" transform="matrix(0.0516152, 0, 0, -0.0517479, 74.584951, 288.467559)" fill="none" stroke-linejoin="round" d="M 1109.34001 2437.801044 C 1109.34001 2613.910149 1180.630792 2757.937655 1270.841633 2769.864461 L 1270.841633 2770.770295 L 1153.764309 2770.770295 C 1057.95313 2770.770295 980.229528 2621.685219 980.229528 2437.801044 C 980.229528 2253.916869 1057.95313 2104.831793 1153.764309 2104.831793 L 1270.841633 2104.831793 L 1270.841633 2105.737626 C 1180.630792 2117.664432 1109.34001 2261.691939 1109.34001 2437.801044 Z M 1109.34001 2437.801044 " stroke="#231f20" stroke-width="34" stroke-opacity="1" stroke-miterlimit="10"/><path fill="#00ff00" d="M 147.285156 162.316406 C 147.285156 166.542969 145.503906 169.972656 143.304688 169.972656 C 141.109375 169.972656 139.324219 166.542969 139.324219 162.316406 C 139.324219 158.089844 141.109375 154.660156 143.304688 154.660156 C 145.503906 154.660156 147.285156 158.089844 147.285156 162.316406 " fill-opacity="1" fill-rule="nonzero"/><path stroke-linecap="round" transform="matrix(0.0516152, 0, 0, -0.0517479, 74.584951, 288.467559)" fill="none" stroke-linejoin="round" d="M 1408.503982 2437.801044 C 1408.503982 2356.125068 1373.993794 2289.848259 1331.385822 2289.848259 C 1288.853529 2289.848259 1254.267662 2356.125068 1254.267662 2437.801044 C 1254.267662 2519.47702 1288.853529 2585.753828 1331.385822 2585.753828 C 1373.993794 2585.753828 1408.503982 2519.47702 1408.503982 2437.801044 Z M 1408.503982 2437.801044 " stroke="#231f20" stroke-width="34" stroke-opacity="1" stroke-miterlimit="10"/><path fill="#00ff00" d="M 139.324219 162.316406 C 139.324219 158.269531 140.957031 154.957031 143.027344 154.679688 L 143.027344 154.660156 L 140.34375 154.660156 C 138.144531 154.660156 136.363281 158.089844 136.363281 162.316406 C 136.363281 166.542969 138.144531 169.972656 140.34375 169.972656 L 143.027344 169.972656 L 143.027344 169.949219 C 140.957031 169.675781 139.324219 166.363281 139.324219 162.316406 " fill-opacity="1" fill-rule="nonzero"/><path stroke-linecap="round" transform="matrix(0.0516152, 0, 0, -0.0517479, 74.584951, 288.467559)" fill="none" stroke-linejoin="round" d="M 1254.267662 2437.801044 C 1254.267662 2516.004658 1285.902 2580.016883 1326.012525 2585.376397 L 1326.012525 2585.753828 L 1274.020203 2585.753828 C 1231.412231 2585.753828 1196.902043 2519.47702 1196.902043 2437.801044 C 1196.902043 2356.125068 1231.412231 2289.848259 1274.020203 2289.848259 L 1326.012525 2289.848259 L 1326.012525 2290.301176 C 1285.902 2295.585204 1254.267662 2359.597429 1254.267662 2437.801044 Z M 1254.267662 2437.801044 " stroke="#231f20" stroke-width="34" stroke-opacity="1" stroke-miterlimit="10"/><path stroke-linecap="round" transform="matrix(0.0516152, 0, 0, -0.0517479, 74.584951, 288.467559)" fill-opacity="1" fill="#00ff00" fill-rule="nonzero" stroke-linejoin="round" d="M 849.302721 2266.598536 C 849.302721 2266.598536 845.594389 2308.946246 859.746593 2321.099511 C 873.898797 2333.177289 914.236363 2370.542916 914.236363 2395.755278 C 914.236363 2412.060279 896.073106 2434.102224 877.001687 2395.755278 C 874.88264 2391.528056 868.752541 2372.581041 827.431133 2340.952359 " stroke="#231f20" stroke-width="34" stroke-opacity="1" stroke-miterlimit="10"/><path stroke-linecap="round" transform="matrix(0.0516152, 0, 0, -0.0517479, 74.584951, 288.467559)" fill-opacity="1" fill="#00ff00" fill-rule="nonzero" stroke-linejoin="round" d="M 3205.455497 1775.032959 C 3277.276041 1786.657821 3340.469037 1809.756572 3389.282789 1837.309003 C 3511.127969 1906.076854 3586.202763 2034.55422 3619.577746 2206.88902 C 3623.89152 2228.855479 3609.512275 2249.991591 3587.640687 2254.2943 C 3565.769099 2258.521522 3544.578633 2244.17916 3540.34054 2222.288187 C 3511.43069 2073.127625 3446.497048 1966.76769 3347.204578 1906.15234 C 3304.823646 1880.260603 3259.642546 1864.785949 3215.596649 1855.954074 " stroke="#231f20" stroke-width="34" stroke-opacity="1" stroke-miterlimit="10"/><path fill="#00ff00" d="M 254.914062 164.332031 C 254.015625 162.4375 255.425781 161.996094 255.988281 163.101562 C 256.382812 163.878906 257.078125 164.589844 257.457031 164.945312 C 257.234375 163.824219 257.113281 161.929688 256.898438 160.734375 C 256.808594 160.222656 256.722656 159.625 256.878906 159.117188 C 257.101562 158.367188 257.8125 158.445312 258.046875 159.089844 C 258.230469 159.585938 258.289062 160.128906 258.359375 160.648438 C 258.394531 160.894531 258.515625 163.101562 258.894531 163.0625 C 259.289062 163.023438 258.882812 158.148438 259.097656 157.5625 C 259.15625 157.410156 259.261719 157.273438 259.410156 157.21875 C 260.054688 156.972656 260.363281 157.960938 260.410156 158.394531 C 260.515625 159.371094 260.449219 160.152344 260.5 161.277344 C 260.519531 161.683594 260.445312 162.152344 260.507812 162.554688 C 260.515625 162.613281 260.617188 162.976562 260.605469 162.996094 C 260.96875 162.261719 261.027344 159.347656 261.082031 158.824219 C 261.144531 158.269531 261.152344 157.488281 261.414062 156.980469 C 261.609375 156.597656 262.007812 156.398438 262.367188 156.722656 C 262.945312 157.242188 262.691406 158.210938 262.660156 158.886719 C 262.636719 159.578125 262.554688 160.269531 262.464844 160.957031 C 262.386719 161.53125 262.394531 162.128906 262.3125 162.703125 C 262.304688 162.78125 262.316406 163.507812 262.328125 163.460938 C 262.5 162.621094 262.730469 162.066406 262.902344 161.441406 C 263.015625 161.042969 263.15625 160.53125 263.503906 160.269531 C 263.746094 160.089844 264.238281 159.921875 264.414062 160.25 C 264.6875 160.769531 264.402344 161.621094 264.253906 162.132812 C 264.074219 162.746094 263.90625 163.464844 263.703125 164.070312 C 263.351562 165.113281 263.105469 166.085938 262.832031 167.234375 C 262.550781 168.425781 262.328125 171.242188 262.328125 171.242188 L 257.9375 171.070312 C 257.9375 171.070312 258.046875 168.871094 257.960938 168.195312 C 257.597656 167.425781 255.40625 165.367188 254.914062 164.332031 " fill-opacity="1" fill-rule="nonzero"/><path stroke-linecap="round" transform="matrix(0.0516152, 0, 0, -0.0517479, 74.584951, 288.467559)" fill="none" stroke-linejoin="round" d="M 3493.721515 2398.850209 C 3476.31506 2435.460974 3503.635625 2443.990905 3514.533579 2422.628335 C 3522.177283 2407.606598 3535.648365 2393.868125 3542.989348 2386.998889 C 3538.675575 2408.663404 3536.329487 2445.274169 3532.167074 2468.37292 C 3530.426429 2478.261601 3528.761464 2489.810977 3531.788673 2499.624171 C 3536.102447 2514.117505 3549.876249 2512.607783 3554.417064 2500.152574 C 3557.974035 2490.565838 3559.109238 2480.073268 3560.471482 2470.033615 C 3561.152605 2465.277989 3563.498692 2422.628335 3570.839675 2423.383196 C 3578.483378 2424.138057 3570.612634 2518.344728 3574.775047 2529.667645 C 3575.91025 2532.611603 3577.953617 2535.253617 3580.829466 2536.310423 C 3593.316705 2541.066048 3599.295443 2521.968061 3600.203606 2513.589103 C 3602.246972 2494.717574 3600.960408 2479.620351 3601.944252 2457.88035 C 3602.322653 2450.029794 3600.884728 2440.971461 3602.095612 2433.196391 C 3602.246972 2432.064099 3604.214659 2425.04389 3603.987618 2424.66646 C 3611.02588 2438.857849 3612.161083 2495.170491 3613.220607 2505.28563 C 3614.43149 2516.004658 3614.582851 2531.101881 3619.653427 2540.915076 C 3623.437438 2548.312715 3631.156823 2552.162507 3638.119404 2545.89716 C 3649.320079 2535.857506 3644.400864 2517.13695 3643.795422 2504.077852 C 3643.34134 2490.71681 3641.752055 2477.355768 3640.01141 2464.070212 C 3638.497805 2452.973753 3638.649166 2441.424377 3637.059881 2430.327918 C 3636.90852 2428.818196 3637.135561 2414.777779 3637.362602 2415.683612 C 3640.692532 2431.913127 3645.157666 2442.632155 3648.487596 2454.709933 C 3650.682323 2462.409517 3653.406812 2472.298198 3660.142353 2477.355768 C 3664.834527 2480.828129 3674.370237 2484.074032 3677.775848 2477.733198 C 3683.073464 2467.693545 3677.548807 2451.237572 3674.672958 2441.348891 C 3671.191667 2429.497571 3667.937417 2415.608126 3664.002045 2403.907778 C 3657.190824 2383.752986 3652.498649 2364.956943 3647.125352 2342.764026 C 3641.676375 2319.740761 3637.362602 2265.315272 3637.362602 2265.315272 L 3552.298017 2268.636661 C 3552.298017 2268.636661 3554.417064 2311.135344 3552.752098 2324.194442 C 3545.713836 2339.065206 3503.257224 2378.846388 3493.721515 2398.850209 Z M 3493.721515 2398.850209 " stroke="#231f20" stroke-width="34" stroke-opacity="1" stroke-miterlimit="10"/><path fill="#00ff00" d="M 256.546875 174.171875 L 263.445312 174.578125 L 263.644531 171.199219 L 256.746094 170.785156 L 256.546875 174.171875 " fill-opacity="1" fill-rule="nonzero"/><path stroke-linecap="round" transform="matrix(0.0516152, 0, 0, -0.0517479, 74.584951, 288.467559)" fill="none" stroke-linejoin="round" d="M 3525.355853 2208.700686 L 3659.007149 2200.850131 L 3662.866841 2266.14562 L 3529.215545 2274.071662 Z M 3525.355853 2208.700686 " stroke="#231f20" stroke-width="34" stroke-opacity="1" stroke-miterlimit="10"/><g clip-path="url(#0c98597954)"><path fill="#00ff00" d="M 291.675781 161.191406 C 291.675781 157.144531 290.042969 153.832031 287.976562 153.558594 L 287.976562 153.535156 L 290.660156 153.535156 C 292.855469 153.535156 294.640625 156.960938 294.640625 161.191406 C 294.640625 165.421875 292.855469 168.847656 290.660156 168.847656 L 287.976562 168.847656 L 287.976562 168.828125 C 290.042969 168.550781 291.675781 165.242188 291.675781 161.191406 " fill-opacity="1" fill-rule="nonzero"/></g><g clip-path="url(#9d1b386cbe)"><path stroke-linecap="round" transform="matrix(0.0516152, 0, 0, -0.0517479, 74.584951, 288.467559)" fill="none" stroke-linejoin="round" d="M 4205.948212 2459.541045 C 4205.948212 2537.744659 4174.313874 2601.756884 4134.279029 2607.040912 L 4134.279029 2607.493829 L 4186.271351 2607.493829 C 4228.803643 2607.493829 4263.389511 2541.292507 4263.389511 2459.541045 C 4263.389511 2377.789583 4228.803643 2311.58826 4186.271351 2311.58826 L 4134.279029 2311.58826 L 4134.279029 2311.965691 C 4174.313874 2317.325205 4205.948212 2381.261944 4205.948212 2459.541045 Z M 4205.948212 2459.541045 " stroke="#231f20" stroke-width="34" stroke-opacity="1" stroke-miterlimit="10"/></g><g clip-path="url(#7673bb7919)"><path fill="#00ff00" d="M 267.441406 161.191406 C 267.441406 170.707031 271.453125 178.421875 276.398438 178.421875 C 281.347656 178.421875 285.359375 170.707031 285.359375 161.191406 C 285.359375 151.675781 281.347656 143.960938 276.398438 143.960938 C 271.453125 143.960938 267.441406 151.675781 267.441406 161.191406 " fill-opacity="1" fill-rule="nonzero"/></g><g clip-path="url(#85d97832a7)"><path stroke-linecap="round" transform="matrix(0.0516152, 0, 0, -0.0517479, 74.584951, 288.467559)" fill="none" stroke-linejoin="round" d="M 3736.42803 2459.541045 C 3736.42803 2275.65687 3814.151632 2126.571794 3909.962811 2126.571794 C 4005.849669 2126.571794 4083.573271 2275.65687 4083.573271 2459.541045 C 4083.573271 2643.425219 4005.849669 2792.510295 3909.962811 2792.510295 C 3814.151632 2792.510295 3736.42803 2643.425219 3736.42803 2459.541045 Z M 3736.42803 2459.541045 " stroke="#231f20" stroke-width="34" stroke-opacity="1" stroke-miterlimit="10"/></g><g clip-path="url(#e385649be6)"><path fill="#00ff00" d="M 285.359375 161.191406 C 285.359375 152.082031 281.679688 144.625 277.023438 144.007812 L 277.023438 143.960938 L 283.066406 143.960938 C 288.015625 143.960938 292.023438 151.675781 292.023438 161.191406 C 292.023438 170.707031 288.015625 178.421875 283.066406 178.421875 L 277.023438 178.421875 L 277.023438 178.375 C 281.679688 177.757812 285.359375 170.304688 285.359375 161.191406 " fill-opacity="1" fill-rule="nonzero"/></g><g clip-path="url(#1a1a2e041c)"><path stroke-linecap="round" transform="matrix(0.0516152, 0, 0, -0.0517479, 74.584951, 288.467559)" fill="none" stroke-linejoin="round" d="M 4083.573271 2459.541045 C 4083.573271 2635.574664 4012.282489 2779.677656 3922.071648 2791.604462 L 3922.071648 2792.510295 L 4039.148973 2792.510295 C 4135.035831 2792.510295 4212.683753 2643.425219 4212.683753 2459.541045 C 4212.683753 2275.65687 4135.035831 2126.571794 4039.148973 2126.571794 L 3922.071648 2126.571794 L 3922.071648 2127.477627 C 4012.282489 2139.404433 4083.573271 2283.43194 4083.573271 2459.541045 Z M 4083.573271 2459.541045 " stroke="#231f20" stroke-width="34" stroke-opacity="1" stroke-miterlimit="10"/></g><path fill="#00ff00" d="M 245.332031 166.203125 L 276.234375 166.203125 C 276.234375 166.203125 277.414062 164.738281 277.414062 161.191406 C 277.414062 157.644531 276.234375 156.179688 276.234375 156.179688 L 245.332031 156.179688 L 245.332031 166.203125 " fill-opacity="1" fill-rule="nonzero"/><path stroke-linecap="round" transform="matrix(0.0516152, 0, 0, -0.0517479, 74.584951, 288.467559)" fill="none" stroke-linejoin="round" d="M 3308.077897 2362.69236 L 3906.784241 2362.69236 C 3906.784241 2362.69236 3929.639672 2390.999653 3929.639672 2459.541045 C 3929.639672 2528.082437 3906.784241 2556.38973 3906.784241 2556.38973 L 3308.077897 2556.38973 Z M 3308.077897 2362.69236 " stroke="#231f20" stroke-width="34" stroke-opacity="1" stroke-miterlimit="10"/><g clip-path="url(#1772d1599f)"><path fill="#00ff00" d="M 226.636719 161.191406 C 226.636719 170.707031 230.644531 178.421875 235.59375 178.421875 C 240.542969 178.421875 244.550781 170.707031 244.550781 161.191406 C 244.550781 151.675781 240.542969 143.960938 235.59375 143.960938 C 230.644531 143.960938 226.636719 151.675781 226.636719 161.191406 " fill-opacity="1" fill-rule="nonzero"/></g><g clip-path="url(#32f80cb2dc)"><path stroke-linecap="round" transform="matrix(0.0516152, 0, 0, -0.0517479, 74.584951, 288.467559)" fill="none" stroke-linejoin="round" d="M 2945.872289 2459.541045 C 2945.872289 2275.65687 3023.520211 2126.571794 3119.407069 2126.571794 C 3215.293928 2126.571794 3292.941849 2275.65687 3292.941849 2459.541045 C 3292.941849 2643.425219 3215.293928 2792.510295 3119.407069 2792.510295 C 3023.520211 2792.510295 2945.872289 2643.425219 2945.872289 2459.541045 Z M 2945.872289 2459.541045 " stroke="#231f20" stroke-width="34" stroke-opacity="1" stroke-miterlimit="10"/></g><g clip-path="url(#61f3b0de9c)"><path fill="#00ff00" d="M 244.550781 161.191406 C 244.550781 152.082031 240.875 144.625 236.21875 144.007812 L 236.21875 143.960938 L 242.257812 143.960938 C 247.207031 143.960938 251.21875 151.675781 251.21875 161.191406 C 251.21875 170.707031 247.207031 178.421875 242.257812 178.421875 L 236.21875 178.421875 L 236.21875 178.375 C 240.875 177.757812 244.550781 170.304688 244.550781 161.191406 " fill-opacity="1" fill-rule="nonzero"/></g><g clip-path="url(#371c45ca5c)"><path stroke-linecap="round" transform="matrix(0.0516152, 0, 0, -0.0517479, 74.584951, 288.467559)" fill="none" stroke-linejoin="round" d="M 3292.941849 2459.541045 C 3292.941849 2635.574664 3221.726748 2779.677656 3131.515907 2791.604462 L 3131.515907 2792.510295 L 3248.517551 2792.510295 C 3344.40441 2792.510295 3422.128012 2643.425219 3422.128012 2459.541045 C 3422.128012 2275.65687 3344.40441 2126.571794 3248.517551 2126.571794 L 3131.515907 2126.571794 L 3131.515907 2127.477627 C 3221.726748 2139.404433 3292.941849 2283.43194 3292.941849 2459.541045 Z M 3292.941849 2459.541045 " stroke="#231f20" stroke-width="34" stroke-opacity="1" stroke-miterlimit="10"/></g><path fill="#00ff00" d="M 229.113281 161.191406 C 229.113281 165.421875 230.894531 168.847656 233.09375 168.847656 C 235.289062 168.847656 237.070312 165.421875 237.070312 161.191406 C 237.070312 156.960938 235.289062 153.535156 233.09375 153.535156 C 230.894531 153.535156 229.113281 156.960938 229.113281 161.191406 " fill-opacity="1" fill-rule="nonzero"/><path stroke-linecap="round" transform="matrix(0.0516152, 0, 0, -0.0517479, 74.584951, 288.467559)" fill="none" stroke-linejoin="round" d="M 2993.853558 2459.541045 C 2993.853558 2377.789583 3028.363746 2311.58826 3070.971718 2311.58826 C 3113.504011 2311.58826 3148.014198 2377.789583 3148.014198 2459.541045 C 3148.014198 2541.292507 3113.504011 2607.493829 3070.971718 2607.493829 C 3028.363746 2607.493829 2993.853558 2541.292507 2993.853558 2459.541045 Z M 2993.853558 2459.541045 " stroke="#231f20" stroke-width="34" stroke-opacity="1" stroke-miterlimit="10"/><path fill="#00ff00" d="M 237.070312 161.191406 C 237.070312 157.144531 235.4375 153.832031 233.371094 153.558594 L 233.371094 153.535156 L 236.054688 153.535156 C 238.25 153.535156 240.035156 156.960938 240.035156 161.191406 C 240.035156 165.421875 238.25 168.847656 236.054688 168.847656 L 233.371094 168.847656 L 233.371094 168.828125 C 235.4375 168.550781 237.070312 165.242188 237.070312 161.191406 " fill-opacity="1" fill-rule="nonzero"/><path stroke-linecap="round" transform="matrix(0.0516152, 0, 0, -0.0517479, 74.584951, 288.467559)" fill="none" stroke-linejoin="round" d="M 3148.014198 2459.541045 C 3148.014198 2537.744659 3116.37986 2601.756884 3076.345015 2607.040912 L 3076.345015 2607.493829 L 3128.337337 2607.493829 C 3170.869629 2607.493829 3205.455497 2541.292507 3205.455497 2459.541045 C 3205.455497 2377.789583 3170.869629 2311.58826 3128.337337 2311.58826 L 3076.345015 2311.58826 L 3076.345015 2311.965691 C 3116.37986 2317.325205 3148.014198 2381.261944 3148.014198 2459.541045 Z M 3148.014198 2459.541045 " stroke="#231f20" stroke-width="34" stroke-opacity="1" stroke-miterlimit="10"/><path stroke-linecap="round" transform="matrix(0.0516152, 0, 0, -0.0517479, 74.584951, 288.467559)" fill-opacity="1" fill="#00ff00" fill-rule="nonzero" stroke-linejoin="round" d="M 3553.054819 2288.338537 C 3553.054819 2288.338537 3556.763151 2330.686247 3542.610947 2342.764026 C 3528.458743 2354.91729 3488.121177 2392.207431 3488.121177 2417.495279 C 3488.121177 2433.724794 3506.284434 2455.842225 3525.355853 2417.495279 C 3527.4749 2413.268057 3533.529319 2394.245556 3574.926407 2362.69236 " stroke="#231f20" stroke-width="34" stroke-opacity="1" stroke-miterlimit="10"/><path stroke-linecap="round" transform="matrix(0.0516152, 0, 0, -0.0517479, 74.584951, 288.467559)" fill="none" stroke-linejoin="round" d="M 2183.469595 1989.262552 L 2413.613192 1989.262552 " stroke="#231f20" stroke-width="34" stroke-opacity="1" stroke-miterlimit="10"/><path stroke-linecap="round" transform="matrix(0.0516152, 0, 0, -0.0517479, 74.584951, 288.467559)" fill="none" stroke-linejoin="round" d="M 2716.334134 1994.773038 L 2946.553411 1994.773038 " stroke="#231f20" stroke-width="34" stroke-opacity="1" stroke-miterlimit="10"/></svg>