<svg xmlns="http://www.w3.org/2000/svg" xmlns:xlink="http://www.w3.org/1999/xlink" width="500" zoomAndPan="magnify" viewBox="0 0 375 374.999991" height="500" preserveAspectRatio="xMidYMid meet" version="1.0"><defs><clipPath id="f0f3f15a1c"><path d="M 65.390625 65.007812 L 309.832031 65.007812 L 309.832031 310 L 65.390625 310 Z M 65.390625 65.007812 " clip-rule="nonzero"/></clipPath><clipPath id="211f684b92"><path d="M 260.976562 65.007812 L 114.023438 65.007812 L 65.390625 113.640625 L 65.390625 261.359375 L 114.023438 309.992188 L 260.976562 309.992188 L 309.609375 261.359375 L 309.609375 113.640625 L 260.976562 65.007812 " clip-rule="nonzero"/></clipPath><clipPath id="a1e6f8e056"><path d="M 65.390625 65.015625 L 309.890625 65.015625 L 309.890625 310.257812 L 65.390625 310.257812 Z M 65.390625 65.015625 " clip-rule="nonzero"/></clipPath><clipPath id="ec38fa21f8"><path d="M 261.203125 65.015625 L 114.078125 65.015625 L 65.390625 113.699219 L 65.390625 261.570312 L 114.078125 310.253906 L 261.203125 310.253906 L 309.890625 261.570312 L 309.890625 113.699219 L 261.203125 65.015625 " clip-rule="nonzero"/></clipPath><clipPath id="eb0a3b64a4"><path d="M 111 123.785156 L 234 123.785156 L 234 241 L 111 241 Z M 111 123.785156 " clip-rule="nonzero"/></clipPath></defs><g clip-path="url(#f0f3f15a1c)"><g clip-path="url(#211f684b92)"><path fill="#141414" d="M 65.390625 65.007812 L 309.832031 65.007812 L 309.832031 310.09375 L 65.390625 310.09375 Z M 65.390625 65.007812 " fill-opacity="1" fill-rule="nonzero"/></g></g><g clip-path="url(#a1e6f8e056)"><g clip-path="url(#ec38fa21f8)"><path stroke-linecap="butt" transform="matrix(0.7509, 0, 0, 0.750825, 65.390911, 65.015254)" fill="none" stroke-linejoin="miter" d="M 260.770095 0.000493949 L 64.838495 0.000493949 L -0.000381417 64.840622 L -0.000381417 261.785423 L 64.838495 326.625551 L 260.770095 326.625551 L 325.608971 261.785423 L 325.608971 64.840622 L 260.770095 0.000493949 " stroke="#00ff00" stroke-width="20" stroke-opacity="1" stroke-miterlimit="4"/></g></g><g clip-path="url(#eb0a3b64a4)"><path fill="#00ff00" d="M 233.28125 133.621094 L 228.199219 133.621094 L 228.199219 131.128906 C 228.199219 129.699219 227.03125 128.53125 225.601562 128.53125 L 118.929688 128.53125 C 117.472656 128.53125 116.335938 129.699219 116.335938 131.128906 L 116.335938 197.148438 C 116.335938 198.578125 117.5 199.742188 118.929688 199.742188 L 177.351562 199.742188 L 177.351562 220.089844 L 166.121094 220.089844 L 162.308594 235.347656 L 177.351562 235.347656 L 177.351562 240.433594 L 149.386719 240.433594 C 147.953125 240.433594 146.84375 239.296875 146.84375 237.890625 C 146.84375 236.539062 147.980469 235.347656 149.410156 235.347656 L 156.003906 235.347656 C 156.589844 235.347656 157.117188 234.898438 157.25 234.367188 L 160.824219 220.089844 L 118.929688 220.089844 C 114.691406 220.089844 111.25 216.644531 111.25 212.484375 L 111.25 131.050781 C 111.25 126.835938 114.640625 123.445312 118.929688 123.445312 L 225.601562 123.445312 C 229.839844 123.445312 233.28125 126.890625 233.28125 131.050781 Z M 172.265625 215.003906 C 175.074219 215.003906 177.351562 212.722656 177.351562 209.914062 C 177.351562 207.109375 175.074219 204.828125 172.265625 204.828125 C 169.460938 204.828125 167.179688 207.109375 167.179688 209.914062 C 167.179688 212.722656 169.460938 215.003906 172.265625 215.003906 Z M 172.265625 215.003906 " fill-opacity="1" fill-rule="evenodd"/></g><path fill="#00ff00" d="M 253.621094 159.050781 L 248.535156 159.050781 L 248.535156 148.878906 L 187.519531 148.878906 L 187.519531 230.261719 L 207.859375 230.261719 L 207.859375 245.519531 L 190.089844 245.519531 C 185.851562 245.519531 182.4375 242.128906 182.4375 237.863281 L 182.4375 146.363281 C 182.4375 142.125 185.824219 138.707031 190.089844 138.707031 L 245.96875 138.707031 C 250.207031 138.707031 253.621094 142.097656 253.621094 146.363281 Z M 253.621094 159.050781 " fill-opacity="1" fill-rule="evenodd"/><path fill="#00ff00" d="M 220.597656 164.136719 L 256.136719 164.136719 C 260.375 164.136719 263.789062 167.527344 263.789062 171.792969 L 263.789062 242.953125 C 263.789062 247.191406 260.402344 250.605469 256.136719 250.605469 L 220.597656 250.605469 C 216.359375 250.605469 212.945312 247.214844 212.945312 242.953125 L 212.945312 171.792969 C 212.945312 167.554688 216.332031 164.136719 220.597656 164.136719 Z M 218.027344 230.261719 L 258.707031 230.261719 L 258.707031 174.3125 L 218.027344 174.3125 Z M 238.367188 245.519531 C 241.175781 245.519531 243.453125 243.242188 243.453125 240.433594 C 243.453125 237.625 241.175781 235.347656 238.367188 235.347656 C 235.558594 235.347656 233.28125 237.625 233.28125 240.433594 C 233.28125 243.242188 235.558594 245.519531 238.367188 245.519531 Z M 238.367188 245.519531 " fill-opacity="1" fill-rule="evenodd"/></svg>