<svg xmlns="http://www.w3.org/2000/svg" xmlns:xlink="http://www.w3.org/1999/xlink" width="500" zoomAndPan="magnify" viewBox="0 0 375 374.999991" height="500" preserveAspectRatio="xMidYMid meet" version="1.0"><defs><clipPath id="ea0d1d2310"><path d="M 65.390625 65.007812 L 309.832031 65.007812 L 309.832031 310 L 65.390625 310 Z M 65.390625 65.007812 " clip-rule="nonzero"/></clipPath><clipPath id="d1dfb28e89"><path d="M 260.976562 65.007812 L 114.023438 65.007812 L 65.390625 113.640625 L 65.390625 261.359375 L 114.023438 309.992188 L 260.976562 309.992188 L 309.609375 261.359375 L 309.609375 113.640625 L 260.976562 65.007812 " clip-rule="nonzero"/></clipPath><clipPath id="d7210550ca"><path d="M 65.390625 65.015625 L 309.890625 65.015625 L 309.890625 310.257812 L 65.390625 310.257812 Z M 65.390625 65.015625 " clip-rule="nonzero"/></clipPath><clipPath id="86dbecf22c"><path d="M 261.203125 65.015625 L 114.078125 65.015625 L 65.390625 113.699219 L 65.390625 261.570312 L 114.078125 310.253906 L 261.203125 310.253906 L 309.890625 261.570312 L 309.890625 113.699219 L 261.203125 65.015625 " clip-rule="nonzero"/></clipPath><clipPath id="e4fc61fee9"><path d="M 108.597656 113.625 L 266.097656 113.625 L 266.097656 261.375 L 108.597656 261.375 Z M 108.597656 113.625 " clip-rule="nonzero"/></clipPath></defs><g clip-path="url(#ea0d1d2310)"><g clip-path="url(#d1dfb28e89)"><path fill="#141414" d="M 65.390625 65.007812 L 309.832031 65.007812 L 309.832031 310.09375 L 65.390625 310.09375 Z M 65.390625 65.007812 " fill-opacity="1" fill-rule="nonzero"/></g></g><g clip-path="url(#d7210550ca)"><g clip-path="url(#86dbecf22c)"><path stroke-linecap="butt" transform="matrix(0.7509, 0, 0, 0.750825, 65.390911, 65.015254)" fill="none" stroke-linejoin="miter" d="M 260.770095 0.000493949 L 64.838495 0.000493949 L -0.000381417 64.840622 L -0.000381417 261.785423 L 64.838495 326.625551 L 260.770095 326.625551 L 325.608971 261.785423 L 325.608971 64.840622 L 260.770095 0.000493949 " stroke="#00ff00" stroke-width="20" stroke-opacity="1" stroke-miterlimit="4"/></g></g><path fill="#00ff00" d="M 129.929688 192.675781 C 137.234375 200.003906 147.296875 204.542969 158.390625 204.542969 C 169.484375 204.542969 179.542969 200.003906 186.851562 192.675781 C 186.878906 192.652344 186.914062 192.644531 186.941406 192.617188 C 186.96875 192.589844 186.976562 192.554688 187.003906 192.523438 C 194.269531 185.15625 198.769531 175.007812 198.769531 163.820312 C 198.769531 152.632812 194.269531 142.484375 187.003906 135.117188 C 186.976562 135.089844 186.96875 135.050781 186.941406 135.023438 C 186.914062 134.996094 186.878906 134.988281 186.851562 134.964844 C 179.542969 127.636719 169.484375 123.101562 158.390625 123.101562 C 147.296875 123.101562 137.234375 127.636719 129.929688 134.96875 C 129.902344 134.992188 129.867188 135 129.839844 135.027344 C 129.8125 135.054688 129.804688 135.089844 129.777344 135.121094 C 122.511719 142.488281 118.011719 152.632812 118.011719 163.820312 C 118.011719 175.011719 122.511719 185.15625 129.777344 192.523438 C 129.804688 192.554688 129.8125 192.589844 129.839844 192.617188 C 129.867188 192.640625 129.902344 192.652344 129.929688 192.675781 Z M 120.542969 165.070312 L 127.085938 165.070312 C 127.777344 165.070312 128.335938 164.511719 128.335938 163.820312 C 128.335938 163.128906 127.777344 162.566406 127.085938 162.566406 L 120.542969 162.566406 C 120.851562 152.976562 124.671875 144.273438 130.757812 137.722656 L 135.371094 142.375 C 135.613281 142.621094 135.9375 142.746094 136.257812 142.746094 C 136.574219 142.746094 136.894531 142.625 137.136719 142.382812 C 137.628906 141.894531 137.628906 141.101562 137.144531 140.609375 L 132.515625 135.945312 C 139.011719 129.808594 147.636719 125.949219 157.140625 125.636719 L 157.140625 132.242188 C 157.140625 132.9375 157.699219 133.496094 158.390625 133.496094 C 159.082031 133.496094 159.640625 132.9375 159.640625 132.242188 L 159.640625 125.636719 C 169.144531 125.949219 177.769531 129.804688 184.265625 135.945312 L 179.640625 140.609375 C 179.152344 141.101562 179.15625 141.894531 179.644531 142.382812 C 179.890625 142.625 180.207031 142.746094 180.527344 142.746094 C 180.847656 142.746094 181.167969 142.621094 181.414062 142.375 L 186.027344 137.722656 C 192.109375 144.273438 195.933594 152.976562 196.242188 162.566406 L 189.695312 162.566406 C 189.003906 162.566406 188.445312 163.128906 188.445312 163.820312 C 188.445312 164.511719 189.003906 165.070312 189.695312 165.070312 L 196.242188 165.070312 C 195.933594 174.660156 192.109375 183.363281 186.027344 189.917969 L 181.414062 185.261719 C 180.925781 184.773438 180.136719 184.769531 179.644531 185.257812 C 179.15625 185.746094 179.152344 186.535156 179.640625 187.027344 L 184.265625 191.695312 C 177.769531 197.832031 169.144531 201.691406 159.640625 202.003906 L 159.640625 195.394531 C 159.640625 194.703125 159.082031 194.144531 158.390625 194.144531 C 157.699219 194.144531 157.140625 194.703125 157.140625 195.394531 L 157.140625 202.003906 C 147.636719 201.691406 139.011719 197.832031 132.515625 191.695312 L 137.144531 187.027344 C 137.628906 186.535156 137.628906 185.746094 137.136719 185.257812 C 136.648438 184.769531 135.859375 184.773438 135.371094 185.261719 L 130.757812 189.917969 C 124.671875 183.367188 120.851562 174.660156 120.542969 165.070312 Z M 120.542969 165.070312 " fill-opacity="1" fill-rule="nonzero"/><path fill="#00ff00" d="M 155.425781 160.59375 C 154.5625 161.402344 154.011719 162.542969 154.011719 163.820312 C 154.011719 166.25 155.972656 168.226562 158.390625 168.226562 C 159.667969 168.226562 160.808594 167.664062 161.609375 166.785156 L 184.53125 176.03125 C 184.683594 176.09375 184.839844 176.121094 184.996094 176.121094 C 185.492188 176.121094 185.960938 175.828125 186.15625 175.335938 C 186.414062 174.695312 186.105469 173.964844 185.464844 173.707031 L 162.699219 164.523438 C 162.734375 164.292969 162.769531 164.0625 162.769531 163.820312 C 162.769531 161.390625 160.804688 159.410156 158.390625 159.410156 C 158.140625 159.410156 157.902344 159.445312 157.664062 159.484375 L 150.136719 142.78125 C 149.855469 142.152344 149.113281 141.867188 148.484375 142.15625 C 147.855469 142.441406 147.574219 143.179688 147.859375 143.8125 Z M 160.269531 163.820312 C 160.269531 164.871094 159.425781 165.722656 158.390625 165.722656 C 157.351562 165.722656 156.507812 164.867188 156.507812 163.820312 C 156.507812 162.769531 157.351562 161.914062 158.390625 161.914062 C 159.425781 161.914062 160.269531 162.769531 160.269531 163.820312 Z M 160.269531 163.820312 " fill-opacity="1" fill-rule="nonzero"/><g clip-path="url(#e4fc61fee9)"><path fill="#00ff00" d="M 255.097656 156.253906 L 242.59375 156.253906 L 242.59375 150.210938 C 242.59375 147.449219 240.351562 145.203125 237.59375 145.203125 L 235.703125 145.203125 C 232.945312 145.203125 230.703125 147.449219 230.703125 150.210938 L 230.703125 156.253906 L 207.59375 156.253906 C 203.964844 132.152344 183.285156 113.625 158.390625 113.625 C 130.949219 113.625 108.621094 136.144531 108.621094 163.820312 C 108.621094 180.402344 116.640625 195.125 128.96875 204.269531 L 128.96875 250.316406 C 128.96875 256.414062 133.890625 261.375 139.941406 261.375 L 255.097656 261.375 C 261.148438 261.375 266.070312 256.414062 266.070312 250.316406 L 266.070312 167.3125 C 266.070312 161.214844 261.148438 156.253906 255.097656 156.253906 Z M 233.203125 150.210938 C 233.203125 148.828125 234.324219 147.707031 235.703125 147.707031 L 237.59375 147.707031 C 238.972656 147.707031 240.09375 148.828125 240.09375 150.210938 L 240.09375 164.796875 C 240.09375 166.179688 238.972656 167.304688 237.59375 167.304688 L 235.703125 167.304688 C 234.324219 167.304688 233.203125 166.179688 233.203125 164.796875 Z M 230.703125 158.757812 L 230.703125 164.796875 C 230.703125 167.5625 232.945312 169.808594 235.703125 169.808594 L 237.59375 169.808594 C 240.351562 169.808594 242.59375 167.5625 242.59375 164.796875 L 242.59375 158.757812 L 255.097656 158.757812 C 259.769531 158.757812 263.570312 162.59375 263.570312 167.3125 L 263.570312 176.777344 L 206.46875 176.777344 C 207.566406 172.640625 208.160156 168.300781 208.160156 163.820312 C 208.160156 162.109375 208.074219 160.421875 207.90625 158.757812 Z M 111.121094 163.820312 C 111.121094 137.523438 132.324219 116.128906 158.390625 116.128906 C 184.453125 116.128906 205.660156 137.523438 205.660156 163.820312 C 205.660156 190.117188 184.453125 211.507812 158.390625 211.507812 C 132.324219 211.507812 111.121094 190.117188 111.121094 163.820312 Z M 219.746094 188.753906 L 219.746094 202.035156 L 206.59375 202.035156 L 206.59375 188.753906 Z M 235.398438 188.753906 L 235.398438 202.035156 L 222.246094 202.035156 L 222.246094 188.753906 Z M 251.050781 188.753906 L 251.050781 202.035156 L 237.898438 202.035156 L 237.898438 188.753906 Z M 222.246094 249.398438 L 222.246094 236.117188 L 235.398438 236.117188 L 235.398438 249.398438 Z M 206.59375 249.398438 L 206.59375 236.117188 L 219.746094 236.117188 L 219.746094 249.398438 Z M 203.78125 249.398438 L 190.945312 249.398438 L 190.945312 236.117188 L 204.09375 236.117188 L 204.09375 249.398438 Z M 175.292969 249.398438 L 175.292969 236.117188 L 188.445312 236.117188 L 188.445312 249.398438 Z M 159.640625 249.398438 L 159.640625 236.117188 L 172.792969 236.117188 L 172.792969 249.398438 Z M 143.988281 249.398438 L 143.988281 236.117188 L 157.140625 236.117188 L 157.140625 249.398438 Z M 157.140625 213.980469 L 157.140625 217.824219 L 143.988281 217.824219 L 143.988281 211.859375 C 148.167969 213.140625 152.578125 213.867188 157.140625 213.980469 Z M 172.792969 211.863281 L 172.792969 217.824219 L 159.640625 217.824219 L 159.640625 213.980469 C 164.199219 213.867188 168.613281 213.140625 172.792969 211.863281 Z M 187.4375 204.539062 L 188.445312 204.539062 L 188.445312 217.824219 L 175.289062 217.824219 L 175.289062 211.027344 C 179.65625 209.433594 183.734375 207.234375 187.4375 204.539062 Z M 219.746094 204.539062 L 219.746094 217.824219 L 206.59375 217.824219 L 206.59375 204.539062 Z M 210.039062 233.613281 L 206.59375 233.613281 L 206.59375 220.328125 L 219.746094 220.328125 L 219.746094 233.613281 Z M 175.292969 233.613281 L 175.292969 220.328125 L 188.445312 220.328125 L 188.445312 233.613281 Z M 143.988281 220.328125 L 157.140625 220.328125 L 157.140625 233.613281 L 143.988281 233.613281 Z M 159.640625 220.328125 L 172.792969 220.328125 L 172.792969 233.613281 L 159.640625 233.613281 Z M 190.945312 220.328125 L 204.09375 220.328125 L 204.09375 233.613281 L 190.945312 233.613281 Z M 222.246094 220.328125 L 235.398438 220.328125 L 235.398438 233.613281 L 222.246094 233.613281 Z M 237.898438 220.328125 L 251.050781 220.328125 L 251.050781 233.613281 L 237.898438 233.613281 Z M 251.050781 217.824219 L 237.898438 217.824219 L 237.898438 204.539062 L 251.050781 204.539062 Z M 235.398438 217.824219 L 222.246094 217.824219 L 222.246094 204.539062 L 235.398438 204.539062 Z M 204.09375 217.824219 L 190.945312 217.824219 L 190.945312 204.539062 L 204.09375 204.539062 Z M 237.898438 236.117188 L 251.050781 236.117188 L 251.050781 249.398438 L 237.898438 249.398438 Z M 204.09375 202.035156 L 190.945312 202.035156 L 190.945312 201.738281 C 195.160156 198.050781 198.757812 193.664062 201.554688 188.75 L 204.09375 188.75 Z M 255.097656 258.871094 L 139.941406 258.871094 C 135.269531 258.871094 131.46875 255.035156 131.46875 250.316406 L 131.46875 206 C 134.589844 208.035156 137.941406 209.730469 141.488281 211.027344 L 141.488281 250.648438 C 141.488281 251.34375 142.046875 251.902344 142.738281 251.902344 L 252.300781 251.902344 C 252.992188 251.902344 253.550781 251.34375 253.550781 250.648438 L 253.550781 187.5 C 253.550781 186.808594 252.992188 186.25 252.300781 186.25 L 202.894531 186.25 C 204.007812 184.015625 204.957031 181.6875 205.734375 179.28125 L 263.570312 179.28125 L 263.570312 250.316406 C 263.570312 255.035156 259.769531 258.871094 255.097656 258.871094 Z M 255.097656 258.871094 " fill-opacity="1" fill-rule="nonzero"/></g></svg>