<svg id="SvgjsSvg1047" width="288" height="288" xmlns="http://www.w3.org/2000/svg" version="1.1"><rect id="SvgjsRect1058" width="288" height="288" rx="20" ry="20" transform="matrix(1,0,0,1,0,0)" fill="#00ff00"></rect><defs id="SvgjsDefs1048"></defs><g id="SvgjsG1049" transform="matrix(1,0,0,1,0,0)"><svg xmlns="http://www.w3.org/2000/svg" viewBox="0 0 24 24" width="288" height="288"><g data-name="Layer 2" fill="#000000" class="color000 svgShape"><g data-name="arrowhead-up" fill="#000000" class="color000 svgShape"><rect width="24" height="24" opacity="0" transform="rotate(180 12 12)" fill="#000000" class="color000 svgShape"></rect><path d="M6.63 11.61L12 7.29l5.37 4.48A1 1 0 0 0 18 12a1 1 0 0 0 .77-.36 1 1 0 0 0-.13-1.41l-6-5a1 1 0 0 0-1.27 0l-6 4.83a1 1 0 0 0-.15 1.41 1 1 0 0 0 1.41.14z" fill="#000000" class="color000 svgShape"></path><path d="M12.64 12.23a1 1 0 0 0-1.27 0l-6 4.83a1 1 0 0 0-.15 1.41 1 1 0 0 0 1.41.15L12 14.29l5.37 4.48A1 1 0 0 0 18 19a1 1 0 0 0 .77-.36 1 1 0 0 0-.13-1.41z" fill="#000000" class="color000 svgShape"></path></g></g></svg></g></svg>